<!-- sample rectangle -->
<svg width="64" height="88" viewBox="0 0 64 88" fill="none" xmlns="http://www.w3.org/2000/svg">
<path d="M46.8598 77.1147C46.1295 76.0679 45.1409 75.302 43.898 75.0153C42.8142 74.7653 41.6997 74.8079 40.5981 74.8166L26.6677 74.9266C25.4747 74.936 24.3308 75.994 24.3862 77.262C24.4412 78.5193 25.3889 79.6075 26.6677 79.5974C30.7484 79.5652 34.829 79.533 38.9096 79.5008C39.8716 79.4932 40.8342 79.4755 41.7962 79.4787C42.0123 79.4794 42.2274 79.4911 42.4433 79.4936C42.4956 79.4942 42.5333 79.4937 42.56 79.4926C42.5667 79.4946 42.5723 79.4965 42.581 79.499C42.6936 79.5306 42.8091 79.5524 42.9224 79.5825C42.8827 79.5837 42.9958 79.656 43.0526 79.6804C43.0604 79.6962 43.0771 79.7241 43.1049 79.7673C43.1436 79.8418 43.2585 80.0678 43.2632 80.0607C43.4357 80.5072 43.578 80.9653 43.6891 81.4317C43.9542 82.4603 44.0125 82.6754 44.0507 83.6404C44.0989 84.8595 45.0655 86.0339 46.3322 85.9759C47.5269 85.9211 48.6654 84.9479 48.6137 83.6404C48.5265 81.4372 48.1487 78.9623 46.8598 77.1147Z" fill="#F7E5B7"/>
<path d="M27.4871 82.3848C27.2254 80.7617 26.9688 79.1376 26.7021 77.5155C26.4314 75.8699 25.8787 74.3629 24.6276 73.2829C24.2933 72.9943 23.9467 72.7249 23.5987 72.4563C23.4763 72.3619 23.3541 72.2674 23.2332 72.1709C23.2259 72.1651 23.2213 72.1615 23.215 72.1565C23.2017 72.1448 23.1858 72.1309 23.1644 72.1123C22.6429 71.6606 22.1391 71.1887 21.6592 70.6872C21.233 70.2418 20.8254 69.7774 20.4365 69.294C20.3393 69.1733 20.2433 69.0514 20.1486 68.9286C20.1324 68.9074 20.0446 68.7913 19.9868 68.7156C19.9331 68.6398 19.8348 68.503 19.8183 68.4791C19.7077 68.3189 19.599 68.1573 19.4924 67.9942C18.7657 66.8797 18.1365 65.7018 17.612 64.4742C17.56 64.3524 17.5092 64.2299 17.4596 64.1068C17.4463 64.0692 17.4291 64.0209 17.4063 63.9566C17.3006 63.6591 17.1951 63.3619 17.0985 63.0609C16.8932 62.4214 16.7166 61.7726 16.5689 61.1143C16.4959 60.7892 16.4301 60.4625 16.3717 60.1341C16.3415 59.9653 16.3133 59.7961 16.2871 59.6265C16.2827 59.5984 16.2571 59.4154 16.242 59.312C16.2309 59.2082 16.2101 59.0243 16.2073 58.9959C16.1906 58.8249 16.1758 58.6538 16.1629 58.4826C16.1337 58.0972 16.114 57.7112 16.1037 57.3246C16.0861 56.6375 16.0982 55.9504 16.1397 55.2633C16.1634 54.8773 16.1971 54.4923 16.2386 54.108C16.2411 54.0844 16.2431 54.0656 16.2449 54.0487C16.2474 54.0315 16.2503 54.012 16.2538 53.9877C16.2845 53.7754 16.3168 53.5633 16.3529 53.3519C16.4898 52.5491 16.6678 51.7543 16.8861 50.9707C16.9895 50.6001 17.1018 50.2325 17.2231 49.8679C17.2771 49.706 17.3328 49.5448 17.3903 49.3842C17.3865 49.3945 17.5589 48.944 17.5612 48.9289C18.2449 47.2752 19.3632 45.7677 19.3647 43.8892C19.3658 42.6174 18.3146 41.3991 17.0832 41.4579C16.4693 41.4815 15.8883 41.7482 15.4627 42.2018C15.0371 42.6553 14.8001 43.2603 14.8017 43.8892C14.8017 43.9178 14.8016 43.9422 14.8015 43.9658C14.79 44.0054 14.7804 44.0384 14.7718 44.0677C14.6385 44.3643 14.4751 44.6461 14.3288 44.9353C13.928 45.727 13.5859 46.5446 13.261 47.3742C12.729 48.7251 12.3218 50.1241 12.0448 51.5529C11.4425 54.6832 11.3958 57.899 11.9068 61.0464C12.7914 66.5657 15.7085 71.849 19.7641 75.4004C20.1161 75.7086 20.4766 76.0064 20.8405 76.2982C20.9911 76.4189 21.143 76.5374 21.2956 76.6552C21.3677 76.7109 21.6666 76.9521 21.5351 76.8352C21.8178 77.0822 21.9368 77.2064 22.0094 77.3883C22.0199 77.4303 22.0343 77.4872 22.0537 77.5651C22.1049 77.7702 22.1535 77.9749 22.1938 78.1829C22.5469 80.0003 22.7922 81.8483 23.0871 83.6775C23.2898 84.9343 24.8013 85.7524 25.8936 85.3757C27.165 84.9372 27.7043 83.7315 27.4871 82.3848Z" fill="#F7E5B7"/>
<path d="M47.0896 87.0985C46.1315 87.1011 45.2114 86.7145 44.5314 86.0235C43.8513 85.3326 43.4667 84.3937 43.4621 83.4129V80.7489C40.7372 81.0611 31.4067 80.9888 28.7321 80.5489V83.3064C28.725 84.2864 28.3396 85.2238 27.6601 85.9142C26.9805 86.6046 26.0619 86.992 25.1045 86.992C24.1471 86.992 23.2285 86.6046 22.549 85.9142C21.8694 85.2238 21.4841 84.2864 21.4769 83.3064V77.8923C17.8544 75.8323 14.8345 72.8201 12.729 69.1666C10.6234 65.5131 9.50839 61.3506 9.49902 57.1087C9.49902 49.8353 12.7192 43.0503 18.334 38.4934C21.9846 35.5205 26.4201 33.7326 31.0708 33.3593C31.7021 33.3087 32.3372 33.283 32.9586 33.283C35.1477 33.283 45.0247 33.6292 47.5028 34.359L53.1535 28.6194C53.2366 28.5339 53.3427 28.4756 53.4582 28.4521C53.5738 28.4285 53.6936 28.4407 53.8023 28.4871C53.9119 28.5317 54.0058 28.6092 54.0715 28.7094C54.1373 28.8096 54.1719 28.9278 54.1709 29.0486V29.9611L55.2712 28.8457C55.3541 28.76 55.4601 28.7017 55.5755 28.6781C55.691 28.6545 55.8108 28.6667 55.9194 28.7131C56.0291 28.7577 56.1231 28.8352 56.1889 28.9355C56.2547 29.0357 56.2894 29.154 56.2884 29.2748V39.4725C59.1238 42.0891 61.2849 45.3813 62.5802 49.0573C63.8754 52.7333 64.2648 56.6796 63.7138 60.5465C63.1628 64.4134 61.6884 68.0814 59.4214 71.2256C57.1544 74.3697 54.1647 76.8928 50.7172 78.5714V83.4129C50.7125 84.3937 50.328 85.3326 49.6479 86.0235C48.9678 86.7145 48.0478 87.1011 47.0896 87.0985ZM43.7472 80.4178V83.4129C43.7544 84.3155 44.1097 85.1786 44.7358 85.8142C45.3618 86.4498 46.2079 86.8065 47.0896 86.8065C47.9714 86.8065 48.8174 86.4498 49.4435 85.8142C50.0695 85.1786 50.4248 84.3155 50.432 83.4129V78.387L50.5134 78.3474C54.3817 76.4685 57.6655 73.5289 60.0003 69.855C62.9755 65.1669 64.2128 59.5433 63.4884 54.0022C62.7639 48.4611 60.1254 43.3686 56.0506 39.6463L56.0032 39.6027V29.2748C56.0042 29.212 55.9864 29.1505 55.9522 29.0984C55.918 29.0463 55.869 29.0062 55.8119 28.9835C55.7551 28.9586 55.6922 28.9519 55.6316 28.9642C55.5711 28.9766 55.5155 29.0073 55.4723 29.0525L53.8857 30.6611V29.0486C53.8867 28.9858 53.8689 28.9242 53.8347 28.8722C53.8005 28.8201 53.7515 28.78 53.6943 28.7573C53.6374 28.7324 53.5745 28.7258 53.5138 28.7382C53.4531 28.7506 53.3975 28.7815 53.3542 28.8268L47.5825 34.6893L47.5005 34.663C45.1968 33.9249 35.1643 33.5749 32.9586 33.5749C32.3446 33.5749 31.7169 33.6003 31.0932 33.6504C26.499 34.0191 22.1174 35.7853 18.5112 38.7221C12.965 43.2233 9.78419 49.925 9.78419 57.1087C9.79367 61.3131 10.9027 65.4381 12.9961 69.0554C15.0895 72.6727 18.0909 75.6502 21.6885 77.6787L21.7621 77.7204V83.3064C21.7694 84.2088 22.1248 85.0718 22.7509 85.7073C23.3769 86.3428 24.2229 86.6994 25.1045 86.6994C25.9862 86.6994 26.8322 86.3428 27.4582 85.7073C28.0842 85.0718 28.4396 84.2088 28.4469 83.3064V80.1994L28.6159 80.2319C31.0194 80.6948 41.1402 80.7678 43.5861 80.4394L43.7472 80.4178Z" fill="#3F3D56"/>
<path d="M27.7582 17.3876L11.9673 22.2453C11.465 22.4004 11.0435 22.7532 10.7952 23.2263C10.547 23.6994 10.4923 24.254 10.6433 24.7683C10.7943 25.2826 11.1385 25.7145 11.6004 25.9692C12.0623 26.2238 12.6041 26.2804 13.1066 26.1264L26.9254 21.8745L27.2149 21.7855C27.2735 20.2585 27.6782 18.7663 28.397 17.427C28.3068 17.3854 28.2103 17.3598 28.1118 17.3511C27.9927 17.3393 27.8725 17.3517 27.7582 17.3876Z" fill="#F7E5B7"/>
<path d="M12.8347 27.162C12.6251 27.1615 12.421 27.0935 12.2511 26.9678C12.0813 26.842 11.9543 26.6648 11.8882 26.4612L10.9008 23.4111C10.8595 23.2837 10.8432 23.1493 10.8527 23.0155C10.8623 22.8816 10.8974 22.751 10.9563 22.6311C11.0151 22.5112 11.0964 22.4043 11.1956 22.3166C11.2948 22.2289 11.4099 22.162 11.5344 22.1198L24.3865 17.7598C24.5109 17.7176 24.6423 17.7009 24.773 17.7106C24.9037 17.7204 25.0313 17.7564 25.1484 17.8166C25.2656 17.8768 25.37 17.96 25.4557 18.0615C25.5414 18.163 25.6068 18.2808 25.648 18.4082L26.6354 21.4583C26.7176 21.7091 26.7011 21.9829 26.5895 22.2215C26.4779 22.4602 26.2799 22.645 26.0375 22.7368C26.0257 22.7414 26.0137 22.7457 26.0016 22.7497L13.1497 27.1095C13.0481 27.1442 12.9418 27.1619 12.8347 27.162Z" fill="#6318AF"/>
<path d="M36.9022 11.9703C34.3083 11.9713 31.8165 13.0055 29.9543 14.8539C28.0922 16.7024 27.0057 19.22 26.9249 21.8739C26.922 21.9776 26.9207 22.0827 26.9207 22.1878C26.9207 24.2086 27.5061 26.184 28.6028 27.8643C29.6996 29.5445 31.2585 30.8541 33.0824 31.6275C34.9063 32.4008 36.9133 32.6032 38.8495 32.2089C40.7858 31.8147 42.5643 30.8416 43.9603 29.4126C45.3562 27.9837 46.3069 26.1631 46.692 24.1811C47.0771 22.1991 46.8795 20.1447 46.124 18.2777C45.3685 16.4107 44.0892 14.8149 42.4477 13.6922C40.8062 12.5695 38.8764 11.9703 36.9022 11.9703ZM36.9022 32.1133C34.3314 32.1106 31.8666 31.064 30.0488 29.2032C28.231 27.3424 27.2085 24.8193 27.2058 22.1878C27.2058 22.052 27.2087 21.9177 27.2144 21.7849C27.2916 19.8406 27.9255 17.9625 29.0371 16.384C30.1487 14.8055 31.6891 13.5963 33.4667 12.9068C35.2443 12.2173 37.1807 12.0778 39.0351 12.5058C40.8895 12.9338 42.5801 13.9103 43.8966 15.3139C45.2132 16.7176 46.0977 18.4864 46.44 20.4004C46.7824 22.3145 46.5676 24.2893 45.8223 26.0794C45.077 27.8695 43.8341 29.3958 42.2482 30.4686C40.6622 31.5414 38.8032 32.1134 36.9022 32.1133Z" fill="#3F3D56"/>
<path d="M45.3156 22.1882C45.3156 24.4722 44.4292 26.6627 42.8515 28.2777C41.2737 29.8927 39.1338 30.8001 36.9025 30.8001C34.6713 30.8001 32.5314 29.8927 30.9536 28.2777C29.3759 26.6627 28.4895 24.4722 28.4895 22.1882C28.4895 21.9152 28.5023 21.6466 28.5265 21.381C28.7293 19.1767 29.7536 17.137 31.3868 15.6854C33.0201 14.2339 35.1367 13.4819 37.2973 13.5858C39.4578 13.6897 41.4963 14.6414 42.9894 16.2432C44.4825 17.8451 45.3156 19.9741 45.3156 22.1882Z" fill="#6318AF"/>
<path d="M39.4083 22.7595C39.2043 22.4851 38.9361 22.2677 38.6283 22.1275C38.2487 21.9638 37.8567 21.8319 37.4562 21.7334V19.3892C38.0718 19.4843 38.6493 19.7537 39.1231 20.1672L39.588 19.1528C39.3206 18.909 39.0137 18.7148 38.681 18.5791C38.3123 18.4263 37.9253 18.3247 37.5303 18.277V17.0888H36.4538V18.2887C36.038 18.3365 35.637 18.4743 35.2774 18.693C34.9525 18.8898 34.679 19.1643 34.4802 19.4929C34.2906 19.8135 34.1923 20.1821 34.1965 20.5569C34.178 20.9631 34.2929 21.364 34.523 21.6955C34.7348 21.9825 35.0145 22.2095 35.3358 22.3552C35.7214 22.5238 36.1202 22.6591 36.5279 22.7595V25.0059C35.8014 24.9498 35.1091 24.6671 34.5444 24.1958L34.0796 25.2117C34.3953 25.479 34.7544 25.6874 35.1405 25.8277C35.5635 25.9827 36.0055 26.077 36.4538 26.108V27.2859H37.5303V26.0861C38.1283 26.0192 38.6891 25.756 39.1288 25.3358C39.3224 25.1457 39.4754 24.9165 39.578 24.6627C39.6806 24.409 39.7306 24.1362 39.7249 23.8616C39.7427 23.4683 39.6313 23.0803 39.4083 22.7595ZM36.5279 21.4853C36.2657 21.4039 36.0218 21.2699 35.8106 21.0912C35.727 21.015 35.6608 20.9207 35.6169 20.8152C35.573 20.7097 35.5525 20.5956 35.5568 20.481C35.5491 20.2211 35.6424 19.9686 35.8163 19.779C36.0092 19.58 36.258 19.4478 36.5279 19.4009V21.4853ZM38.1321 24.5914C37.9502 24.7824 37.7133 24.9087 37.4562 24.9519V23.0194C37.702 23.0869 37.9319 23.2045 38.1321 23.3653C38.208 23.4317 38.2683 23.5147 38.3085 23.6082C38.3488 23.7017 38.3679 23.8033 38.3645 23.9054C38.3744 24.1559 38.2914 24.4009 38.1321 24.5914Z" fill="#F7E5B7"/>
<path d="M13.2931 39.5238C13.0727 39.5234 12.8586 39.4486 12.6839 39.311C12.5092 39.1733 12.3838 38.9805 12.3271 38.7625L11.7895 36.6796C11.7222 36.4178 11.7591 36.1393 11.8921 35.9053C12.0251 35.6713 12.2433 35.5009 12.4989 35.4314L29.4591 30.8438C29.715 30.7754 29.987 30.8136 30.2155 30.95C30.444 31.0863 30.6105 31.3098 30.6784 31.5715L31.1338 33.3362L31.0485 33.3429C26.6988 33.6891 22.5369 35.3035 19.0553 37.995L19.0306 38.0072L13.5464 39.4902C13.4637 39.5125 13.3786 39.5238 13.2931 39.5238Z" fill="#6318AF"/>
<path d="M10.4836 49.8117C8.49405 49.5108 6.59129 48.7744 4.905 47.6526C4.06957 47.0972 3.29617 46.4497 2.59869 45.7217C1.91027 45.003 1.25168 44.186 0.910691 43.2288C0.582618 42.3432 0.599528 41.3624 0.957924 40.4891C1.31143 39.6213 1.98671 38.9323 2.83571 38.5733C3.68979 38.2246 4.72168 38.1873 5.5529 38.5692C5.94899 38.7469 6.29174 39.0293 6.54597 39.3874C6.66414 39.5525 6.75164 39.7385 6.8041 39.936C6.85279 40.115 6.85721 40.3035 6.81699 40.4847C6.76825 40.6655 6.68229 40.8336 6.56489 40.9777C6.44748 41.1218 6.30134 41.2385 6.13626 41.32C5.77296 41.5108 5.37931 41.6337 4.97382 41.6829C4.56598 41.7399 3.98013 41.7917 3.65226 41.4565C3.58477 41.3902 3.53169 41.3101 3.49646 41.2214C3.47182 41.1535 3.46339 41.0805 3.47188 41.0086C3.4671 41.0403 3.49166 40.9396 3.49026 40.9437C3.48508 40.9585 3.46262 40.9948 3.49454 40.9391C3.50451 40.9207 3.51562 40.903 3.52778 40.8861C3.51695 40.9004 3.49314 40.9244 3.53565 40.8833C3.57077 40.844 3.61592 40.8154 3.66602 40.8009C3.68575 40.795 3.70578 40.7904 3.72557 40.7848C3.77587 40.7708 3.67543 40.7856 3.72689 40.7839C3.74675 40.7833 3.76685 40.7838 3.78664 40.7828C3.83712 40.7805 3.73684 40.7687 3.78522 40.7812C3.804 40.786 3.82261 40.7908 3.84111 40.7967C3.88133 40.8097 3.81263 40.7665 3.83988 40.7988C3.87183 40.8367 3.80635 40.762 3.84265 40.7987C3.86072 40.8168 3.87775 40.836 3.89365 40.8562C3.95661 40.9198 4.04153 40.9555 4.13 40.9555C4.21848 40.9555 4.30339 40.9198 4.36635 40.8562C4.42717 40.7911 4.46111 40.7044 4.46111 40.6143C4.46111 40.5242 4.42717 40.4375 4.36635 40.3723C4.03676 39.9541 3.38573 40.0574 3.05231 40.4109C2.6271 40.8617 2.79548 41.5762 3.2091 41.9695C3.67733 42.4148 4.3405 42.4458 4.9428 42.3711C5.45182 42.3212 5.94787 42.1777 6.40712 41.9475C6.86344 41.718 7.22034 41.3233 7.40871 40.8399C7.49374 40.5819 7.52429 40.3084 7.49832 40.0374C7.47235 39.7664 7.39046 39.5042 7.25807 39.268C6.72629 38.2447 5.62515 37.72 4.53675 37.6291C3.97639 37.5842 3.41288 37.6534 2.87885 37.8329C2.34481 38.0124 1.85084 38.2984 1.42553 38.6746C0.605755 39.4301 0.100955 40.4791 0.0155239 41.6048C-0.0794807 42.772 0.362895 43.9054 1.00787 44.8473C1.68308 45.8044 2.48882 46.6573 3.40051 47.3803C5.18285 48.8369 7.27353 49.8462 9.50524 50.3274C9.77069 50.3835 10.0376 50.4316 10.3059 50.4716C10.3912 50.4927 10.4813 50.4798 10.5577 50.4354C10.6341 50.391 10.691 50.3185 10.717 50.2326C10.7399 50.1451 10.7283 50.0519 10.6846 49.9732C10.6409 49.8944 10.5687 49.8364 10.4836 49.8117Z" fill="#3F3D56"/>
<path d="M42.3373 34.9418C39.4224 34.8997 36.5167 34.9754 33.6201 35.169C32.6301 35.2351 31.7734 35.5933 31.7734 36.1954C31.7734 36.6988 32.6232 37.2885 33.6201 37.2218C36.5152 37.0283 39.4209 36.9526 42.3373 36.9946C44.7149 37.029 44.7135 34.9761 42.3373 34.9418Z" fill="#F7E5B7"/>
<path d="M38.0281 36.8926C37.7131 36.8926 30.313 36.8806 30.313 35.8342C30.313 34.7879 37.7131 34.7759 38.0281 34.7759C38.3432 34.7759 45.7433 34.788 45.7433 35.8342C45.7433 36.8806 38.3432 36.8926 38.0281 36.8926ZM30.6024 35.8342C30.8049 36.1514 33.525 36.6007 38.0281 36.6007C42.5313 36.6007 45.2514 36.1515 45.4539 35.8342C45.2514 35.5171 42.5313 35.0678 38.0281 35.0678C33.525 35.0678 30.8049 35.5171 30.6024 35.8342Z" fill="#3F3D56"/>
<path d="M58.7922 48.1306H53.4546V49.1451H58.7922V48.1306Z" fill="#3F3D56"/>
<path d="M15.7084 44.1892C15.4708 44.1884 15.2413 44.101 15.0609 43.9428C14.8805 43.7845 14.761 43.5657 14.7239 43.3254L14.3981 41.1971C14.3574 40.9294 14.4221 40.6561 14.578 40.4372C14.734 40.2183 14.9683 40.0716 15.2297 40.0294L32.5594 37.2499C32.8209 37.2083 33.0878 37.2745 33.3017 37.4341C33.5155 37.5937 33.6588 37.8336 33.7 38.1012L34.0258 40.2296C34.0665 40.4973 34.0018 40.7706 33.8459 40.9895C33.69 41.2084 33.4556 41.355 33.1942 41.3972L15.8646 44.1767C15.8129 44.185 15.7607 44.1891 15.7084 44.1892Z" fill="#6318AF"/>
<path d="M8.53547 19.246C12.5518 19.246 15.8078 15.9131 15.8078 11.8018C15.8078 7.69053 12.5518 4.35767 8.53547 4.35767C4.5191 4.35767 1.26318 7.69053 1.26318 11.8018C1.26318 15.9131 4.5191 19.246 8.53547 19.246Z" fill="#F7E5B7"/>
<path d="M12.653 13.7283C12.8854 13.6451 13.0977 13.5119 13.2757 13.3377C13.3934 13.2135 13.4832 13.0644 13.5387 12.9009C13.5943 12.7375 13.6142 12.5636 13.5972 12.3914C13.5873 12.2687 13.5498 12.1499 13.4877 12.0445C13.4255 11.9391 13.3404 11.8498 13.239 11.7836C12.9758 11.6179 12.628 11.6242 12.2769 11.7908L12.2364 8.88493L11.9512 8.88909L11.9989 12.3052L12.2159 12.1595C12.4677 11.9907 12.8294 11.8684 13.0896 12.0322C13.1539 12.0756 13.2076 12.1336 13.2465 12.2017C13.2854 12.2698 13.3085 12.3461 13.3139 12.4248C13.3258 12.5531 13.3107 12.6825 13.2695 12.8043C13.2282 12.926 13.1618 13.0372 13.0748 13.1304C12.7657 13.4443 12.3081 13.5496 11.7859 13.6458L11.8364 13.9331C12.114 13.8899 12.3873 13.8214 12.653 13.7283Z" fill="#2F2E41"/>
<path d="M15.1738 8.68104L13.6553 8.91644L13.6978 9.20398L15.2163 8.96858L15.1738 8.68104Z" fill="#2F2E41"/>
<path d="M10.3796 9.42397L8.86108 9.65938L8.90362 9.94692L10.4221 9.71151L10.3796 9.42397Z" fill="#2F2E41"/>
<path d="M13.3414 44.0592C13.0798 44.0586 12.8247 43.9765 12.6098 43.8239C12.395 43.6712 12.2306 43.4552 12.1387 43.2046L7.12463 29.4593C6.51178 27.7735 6.57723 25.9077 7.3066 24.2713C8.03597 22.6348 9.36971 21.3614 11.0152 20.7303L15.0922 19.172C15.2498 19.1113 15.4176 19.0831 15.586 19.0891C15.7543 19.0951 15.9198 19.1351 16.073 19.2068C16.2257 19.2767 16.3634 19.377 16.4779 19.502C16.5923 19.6269 16.6813 19.774 16.7396 19.9346L26.0277 37.8858C26.088 38.0477 26.1164 38.2201 26.1114 38.3933C26.1063 38.5665 26.0678 38.7369 25.9982 38.8948C25.9285 39.0527 25.829 39.1949 25.7054 39.3133C25.5819 39.4317 25.4367 39.5238 25.2781 39.5845L13.7899 43.9757C13.6465 44.0308 13.4945 44.0591 13.3414 44.0592Z" fill="#6318AF"/>
<path d="M13.8564 19.6444L23.0721 32.2595L16.8363 19.7768C16.7848 19.6312 16.7058 19.4974 16.6037 19.383C16.5017 19.2686 16.3786 19.1759 16.2416 19.1102C16.1045 19.0446 15.9562 19.0071 15.805 19.0001C15.6539 18.9932 15.5028 19.0167 15.3606 19.0695L13.8564 19.6444Z" fill="#F7E5B7"/>
<path d="M28.4474 29.2252L11.9928 28.1402C11.7334 28.1231 11.4799 28.0539 11.2467 27.9365C11.0134 27.8191 10.8051 27.6558 10.6335 27.456C10.4619 27.2562 10.3304 27.0237 10.2466 26.7719C10.1628 26.52 10.1283 26.2538 10.145 25.9883C10.1617 25.7228 10.2293 25.4633 10.344 25.2245C10.4587 24.9858 10.6182 24.7725 10.8134 24.5968C11.0086 24.4212 11.2357 24.2866 11.4817 24.2008C11.7277 24.115 11.9878 24.0797 12.2472 24.0968L28.7019 25.1817C28.8233 25.1897 28.9421 25.2221 29.0513 25.2771C29.1605 25.332 29.2581 25.4085 29.3385 25.5021C29.4188 25.5956 29.4804 25.7045 29.5196 25.8225C29.5589 25.9404 29.5751 26.0651 29.5672 26.1894L29.432 28.3394C29.4162 28.5905 29.3036 28.8248 29.1189 28.991C28.9343 29.1571 28.6928 29.2413 28.4474 29.2252Z" fill="#F7E5B7"/>
<path d="M24.0508 29.9195C24.0291 29.9195 24.0073 29.9188 23.9855 29.9174L10.4738 29.0265C10.343 29.0179 10.2151 28.983 10.0975 28.9238C9.97986 28.8646 9.87477 28.7822 9.78823 28.6815C9.70169 28.5807 9.63539 28.4634 9.59312 28.3364C9.55085 28.2094 9.53343 28.0751 9.54186 27.9412L9.77292 24.269C9.78134 24.1351 9.81546 24.0042 9.8733 23.8838C9.93115 23.7634 10.0116 23.6559 10.1101 23.5673C10.2085 23.4787 10.3231 23.4108 10.4472 23.3676C10.5712 23.3243 10.7024 23.3065 10.8332 23.3151L24.3449 24.206C24.6089 24.2237 24.8553 24.3479 25.03 24.5513C25.2047 24.7548 25.2935 25.0209 25.2768 25.2912L25.0458 28.9635C25.033 29.1602 24.9651 29.3491 24.8501 29.5073C24.7351 29.6655 24.578 29.7864 24.3975 29.8554C24.2866 29.8979 24.1692 29.9196 24.0508 29.9195Z" fill="#6318AF"/>
<path d="M8.45306 6.85199C9.40975 6.00973 10.7235 6.76319 11.8207 6.63129C12.8703 6.5051 13.6991 5.5413 13.9109 4.51739C14.1579 3.32282 13.5522 2.12603 12.6594 1.38124C11.6816 0.565504 10.3847 0.331327 9.1558 0.482244C7.7473 0.655211 6.45917 1.32728 5.30334 2.14018C4.18767 2.90053 3.1617 3.79046 2.24589 4.79223C1.42581 5.71934 0.731002 6.82444 0.50913 8.07201C0.307502 9.20578 0.46146 10.4622 1.11622 11.4226C1.46343 11.9149 1.92871 12.3073 2.46719 12.5619C3.02864 12.8441 3.62755 13.0459 4.17149 13.365C4.99394 13.8474 5.79328 14.8478 5.53565 15.8888C5.48042 16.1162 5.37142 16.3263 5.21824 16.5004C5.0342 16.7095 4.70224 16.4332 4.88676 16.2235C5.21085 15.8552 5.19808 15.3641 5.02537 14.9244C4.81999 14.4289 4.45631 14.0196 3.99392 13.7634C3.42454 13.4301 2.79593 13.2244 2.21235 12.9209C1.65378 12.6436 1.16892 12.2323 0.799044 11.722C0.100587 10.7284 -0.108336 9.43534 0.0500688 8.23914C0.221487 6.94467 0.871222 5.76838 1.68571 4.78265C2.57211 3.70989 3.66091 2.80184 4.77322 1.98607C5.96674 1.11075 7.28535 0.370719 8.74448 0.103064C10.0093 -0.128952 11.3803 0.0138914 12.4863 0.71946C13.5187 1.37806 14.3104 2.51099 14.3892 3.77693C14.4174 4.35292 14.2953 4.92623 14.0352 5.43784C13.7751 5.94945 13.3866 6.38088 12.9096 6.68775C12.4201 6.98759 11.851 7.12254 11.2826 7.07358C10.6749 7.03376 10.0666 6.84328 9.45508 6.89617C9.17834 6.91336 8.91462 7.02243 8.70389 7.20685C8.49486 7.39087 8.24575 7.0345 8.45306 6.85199Z" fill="#2F2E41"/>
</svg>

