<!-- sample rectangle -->
<svg width="95" height="85" viewBox="0 0 95 85" fill="none" xmlns="http://www.w3.org/2000/svg">
<mask id="mask0_1_4213" style="mask-type:alpha" maskUnits="userSpaceOnUse" x="0" y="0" width="95" height="86">
<rect y="0.000244141" width="94.1071" height="85" rx="2" fill="#D9D9D9"/>
</mask>
<g mask="url(#mask0_1_4213)">
<path d="M39.835 22.8214C35.7963 22.8247 31.7856 22.13 27.9693 20.7662C22.8532 18.9409 18.6619 16.4233 15.512 13.2832C9.5536 7.3434 4.66862 6.44824 1.62047 6.74299C-1.67912 7.06221 -3.59973 8.80568 -3.61874 8.82326L-3.75 8.67226C-3.73061 8.65429 -1.7704 6.87126 1.58937 6.54228C3.55961 6.34949 5.61998 6.6854 7.71342 7.54099C10.324 8.60793 12.9938 10.4908 15.6486 13.1373C18.7777 16.2567 22.9447 18.759 28.0335 20.5744C37.3756 23.9073 47.9046 23.1004 56.9205 18.3605C59.9057 16.7911 62.8561 15.7198 65.6897 15.1765C69.2628 14.4912 72.6515 14.6503 75.7623 15.649C82.5981 17.8434 87.2673 17.727 89.9806 17.2432C92.908 16.7211 94.2363 15.6762 94.2493 15.6657L94.37 15.8258C94.315 15.8699 92.9895 16.9124 90.014 17.4431C87.2793 17.9309 82.5767 18.049 75.7039 15.8426C68.745 13.6089 61.6969 16.0771 57.0098 18.5412C52.5535 20.8964 47.6875 22.3129 42.6953 22.708C41.7385 22.7836 40.785 22.8214 39.835 22.8214Z" fill="#7E7E7E"/>
<path d="M39.4379 25.3382C40.5381 25.3382 41.43 24.4179 41.43 23.2826C41.43 22.1474 40.5381 21.2271 39.4379 21.2271C38.3377 21.2271 37.4458 22.1474 37.4458 23.2826C37.4458 24.4179 38.3377 25.3382 39.4379 25.3382Z" fill="#F7E5B7"/>
<path d="M70.3009 17.1235C71.4011 17.1235 72.293 16.2032 72.293 15.0679C72.293 13.9326 71.4011 13.0123 70.3009 13.0123C69.2007 13.0123 68.3088 13.9326 68.3088 15.0679C68.3088 16.2032 69.2007 17.1235 70.3009 17.1235Z" fill="#F7E5B7"/>
<path d="M6.11782 9.11138C7.21803 9.11138 8.10992 8.19107 8.10992 7.05581C8.10992 5.92055 7.21803 5.00024 6.11782 5.00024C5.01762 5.00024 4.12573 5.92055 4.12573 7.05581C4.12573 8.19107 5.01762 9.11138 6.11782 9.11138Z" fill="#F7E5B7"/>
<path d="M53.7236 54.1367V73.9976H56.75V55.8854H68.8554V73.9976H71.8818V34.2758H68.8554C67.8526 34.2758 66.3133 39.6651 66.3133 45.0806C66.3133 49.1625 66.7753 52.6608 67.4322 54.1367H53.7236ZM68.8554 54.1367H68.826C68.8359 54.1145 68.8456 54.091 68.8554 54.0679V54.1367Z" fill="#7E7E7E"/>
<path d="M64.9389 24.4454C62.4547 24.4454 60.4409 26.7515 60.4409 29.5962V33.2104H61.5182L62.1418 31.8713L61.9859 33.2104H68.91L69.477 31.9931L69.3352 33.2104H70.1148V30.3726C70.1148 27.0991 67.7975 24.4454 64.9389 24.4454Z" fill="#030303"/>
<path d="M59.7844 48.0593L57.0227 49.2704L47.4258 57.3208C47.0729 57.7683 46.8566 58.3138 46.8044 58.8882C46.7353 59.8143 43.8356 64.6588 44.8712 65.3C45.9068 65.9412 49.6351 67.8647 49.8423 66.5823C50.0494 65.3 51.1541 59.8143 51.1541 59.8143L60.4057 51.2652L59.7844 48.0593Z" fill="#6318AF"/>
<path d="M48.9457 65.5135L47.772 69.0756C47.772 69.0756 49.0147 70.4292 48.3934 71.5691V75.4874H47.4268L47.1506 73.4214C47.1506 73.4214 46.0496 75.4613 45.4936 75.4874C44.3279 75.5421 42.0194 75.97 41.9504 75.3288C41.8814 74.6876 43.6985 74.0626 43.6985 74.0626L45.6317 68.5769L46.4602 65.2285L48.9457 65.5135Z" fill="#030303"/>
<path d="M66.9653 47.1326C66.9653 47.1326 67.5867 53.402 65.7915 54.5419C63.9964 55.6817 56.0566 59.3151 56.0566 59.3151C56.0566 59.3151 59.4396 62.5922 58.7492 63.3759C58.0588 64.1596 54.9519 66.2968 54.5376 65.8694C54.1234 65.4419 49.4975 60.3125 50.0499 58.6739C50.6022 57.0353 58.2659 51.6922 58.2659 51.6922L59.1635 48.3438L59.4396 45.6366L62.3394 43.713L66.9653 47.1326Z" fill="#6318AF"/>
<path d="M63.8021 32.5363C65.3917 32.5363 66.6804 31.2066 66.6804 29.5663C66.6804 27.926 65.3917 26.5963 63.8021 26.5963C62.2125 26.5963 60.9238 27.926 60.9238 29.5663C60.9238 31.2066 62.2125 32.5363 63.8021 32.5363Z" fill="white"/>
<path d="M66.033 30.7827C66.033 30.7827 65.8949 33.4899 68.0353 34.3448C70.1756 35.1997 62.719 40.7566 62.719 40.7566V34.5586C62.719 34.5586 63.6856 33.4899 62.719 31.8513L66.033 30.7827Z" fill="white"/>
<path d="M70.6245 43.4994L70.0722 46.2778L68.4152 55.8243C68.4152 55.8243 69.796 59.8851 67.9319 59.8139C66.0677 59.7427 66.9653 55.3969 66.9653 55.3969L67.9319 47.489V44.4255L70.6245 43.4994Z" fill="white"/>
<path d="M58.7494 42.1456L58.1281 44.6391L55.2973 51.6921C55.2973 51.6921 53.3641 55.0405 54.9521 54.9693C56.5401 54.898 56.5401 51.6921 56.5401 51.6921L59.7851 45.9927V42.7868L58.7494 42.1456Z" fill="white"/>
<path d="M58.266 62.9482L60.5444 65.1568C60.5444 65.1568 62.1324 64.8005 62.7538 66.7241C63.3751 68.6476 63.7894 69.8588 63.7894 69.8588L62.9609 70.3575L61.9252 68.8614C61.9252 68.8614 61.3039 71.5686 60.6825 71.7823C60.0611 71.996 56.9542 73.4209 57.2304 71.7823L58.7493 69.5025C58.7493 69.5025 58.9564 66.9378 58.335 66.7241C57.7137 66.5104 56.0566 64.3731 56.0566 64.3731L58.266 62.9482Z" fill="#030303"/>
<path d="M67.075 49.3414C67.075 49.3414 60.585 46.9192 60.1707 47.1329C59.8624 47.2735 59.5339 47.3614 59.1982 47.3934L59.2041 46.4205C59.2041 46.4205 61.3444 45.6368 62.5182 46.1355C63.6919 46.6342 67.2821 48.8427 67.2821 48.8427L67.075 49.3414Z" fill="#7E7E7E"/>
<path d="M63.1332 39.3319C63.1332 39.3319 64.9973 37.1234 65.5496 35.7698C65.8991 34.9492 66.5405 34.2984 67.3416 33.9517C67.3416 33.9517 71.4873 34.9149 71.4182 36.6247C71.3492 38.3346 68.7946 40.9705 68.7946 40.9705C68.7946 40.9705 69.1398 50.4458 67.2757 50.3033C66.8736 49.8081 66.5898 49.2225 66.4472 48.5935C66.2401 47.5961 59.8191 46.5274 59.8191 46.5274C59.8191 46.5274 59.2668 47.5248 59.1977 47.0974C59.1287 46.6699 59.7501 36.1973 59.7501 36.1973L63.0425 33.9517L63.1332 39.3319Z" fill="#F7E5B7"/>
<path d="M70.8869 35.9359L70.9331 35.9627C71.0806 36.0481 71.2035 36.1726 71.289 36.3233C71.3744 36.4739 71.4195 36.6454 71.4195 36.82L71.4188 42.1071C71.4193 42.2508 71.4501 42.3927 71.5091 42.5229C71.568 42.6531 71.6538 42.7685 71.7603 42.8611C72.0262 43.0945 72.2729 43.4308 71.7639 43.6059C70.9354 43.8909 67.6904 45.3157 67.6214 44.817C67.5523 44.3183 67.4142 43.7484 67.6214 43.7484C67.7835 43.7484 68.7497 38.6397 69.526 36.4555C69.5734 36.3217 69.6484 36.2002 69.7458 36.0994C69.8432 35.9985 69.9607 35.9207 70.0901 35.8713C70.2195 35.8219 70.3578 35.802 70.4954 35.8132C70.6329 35.8244 70.7665 35.8662 70.8869 35.9359Z" fill="#F7E5B7"/>
<path d="M60.6825 35.9475L59.7159 36.2325L58.6112 41.1482C58.6112 41.1482 57.2994 41.4332 57.7137 41.9319C58.1279 42.4306 59.854 43.7129 59.854 43.7129L60.6825 35.9475Z" fill="#F7E5B7"/>
<path d="M66.2173 25.8644C66.0008 25.5645 65.7203 25.32 65.3976 25.1501C65.0748 24.9801 64.7184 24.8891 64.356 24.8843H64.2677C62.5651 24.8843 61.1848 26.4741 61.1848 28.4352L61.7553 28.4352L61.8475 27.7115L61.9825 28.4352H65.3662L65.6497 27.8229L65.5788 28.4352H66.2445C66.5551 30.0269 66.1088 31.6187 64.9055 33.2105H66.0395L66.6064 31.9861L66.4647 33.2105H68.6263L69.0515 30.3943C69.0515 28.2852 67.8639 26.4967 66.2173 25.8644Z" fill="#030303"/>
<path d="M8.39239 58.7255C9.11874 57.0937 9.62955 53.2258 9.62955 48.7125C9.62955 42.7249 7.92761 36.766 6.81879 36.766H3.47266V80.6851H6.81879V60.6591H20.2034V80.6851H23.5495V58.7255H8.39239ZM6.81879 58.6495C6.82962 58.6751 6.84041 58.701 6.85134 58.7255H6.81879V58.6495Z" fill="#7E7E7E"/>
<path d="M22.3393 50.7131C22.3393 50.7131 26.3692 52.4373 25.0914 53.4515C23.8137 54.4657 21.1599 52.2344 21.2581 51.9302C21.3564 51.6259 20.865 50.916 20.865 50.916L22.3393 50.7131Z" fill="white"/>
<path d="M18.8005 37.123L20.0783 38.3401L20.3731 41.8898L21.356 45.6424C21.356 45.6424 23.0269 49.1921 22.7321 49.9021C22.4372 50.612 23.0269 50.8148 23.0269 50.8148L20.7663 51.7276C20.7663 51.7276 18.3091 48.8878 18.3091 48.2793C18.3091 47.6708 18.8005 37.123 18.8005 37.123Z" fill="#F7E5B7"/>
<path opacity="0.6" d="M18.8005 37.123L20.0783 38.3401L20.3731 41.8898L21.356 45.6424C21.356 45.6424 23.0269 49.1921 22.7321 49.9021C22.4372 50.612 23.0269 50.8148 23.0269 50.8148L20.7663 51.7276C20.7663 51.7276 18.3091 48.8878 18.3091 48.2793C18.3091 47.6708 18.8005 37.123 18.8005 37.123Z" fill="#6318AF"/>
<path d="M30.8899 73.6346C30.8899 73.6346 30.3985 75.9673 30.3002 76.1701C30.2019 76.3729 32.1677 77.0829 32.1677 77.0829L34.5266 75.3587C34.5266 75.3587 33.5437 73.1275 33.5437 72.7218L30.8899 73.6346Z" fill="#F7E5B7"/>
<path d="M18.0148 50.9164L18.7028 51.7277C18.7028 51.7277 32.9547 53.5533 33.2496 56.3931C33.5445 59.2329 35.6085 72.6204 34.4291 73.0261C33.2496 73.4318 30.2026 74.9531 30.2026 74.1417C30.2026 73.3304 28.2369 62.1741 28.63 60.1457C28.63 60.1457 11.626 57.9144 11.2329 55.3789C10.8397 52.8434 11.626 51.7277 11.626 51.7277L18.0148 50.9164Z" fill="#030303"/>
<path opacity="0.1" d="M18.0148 50.9164L18.7028 51.7277C18.7028 51.7277 32.9547 53.5533 33.2496 56.3931C33.5445 59.2329 35.6085 72.6204 34.4291 73.0261C33.2496 73.4318 30.2026 74.9531 30.2026 74.1417C30.2026 73.3304 28.2369 62.1741 28.63 60.1457C28.63 60.1457 11.626 57.9144 11.2329 55.3789C10.8397 52.8434 11.626 51.7277 11.626 51.7277L18.0148 50.9164Z" fill="black"/>
<path d="M30.6934 75.9673C30.6934 75.9673 30.3003 75.0545 30.1037 75.3588C29.9071 75.663 29.2191 79.2128 29.9071 79.2128C30.5952 79.2128 36.8856 80.8355 37.7702 80.6326C38.6548 80.4298 40.3258 80.7341 40.1292 79.7199C39.9326 78.7056 38.9497 78.6042 38.9497 78.6042C38.9497 78.6042 35.313 76.373 35.1164 75.2573C34.9199 74.1417 33.8387 74.7502 33.8387 74.7502V75.4602C33.8387 75.4602 31.7746 77.0829 30.6934 75.9673Z" fill="#030303"/>
<path d="M12.0186 29.4152C12.0186 29.4152 12.7066 32.8635 11.2323 33.1677C9.75795 33.472 13.0998 35.5004 13.0998 35.5004L15.2621 36.7175L16.8347 35.0947C16.8347 35.0947 15.4096 32.1028 16.4907 29.8716C17.5719 27.6403 12.0186 29.4152 12.0186 29.4152Z" fill="white"/>
<path d="M16.8347 35.0947L15.2621 36.7175L13.0998 35.5004C13.0998 35.5004 9.75795 33.472 11.2323 33.1677C12.1808 32.972 12.2338 31.475 12.1523 30.4324C12.1256 30.0911 12.081 29.7515 12.0186 29.4152C12.0186 29.4152 17.5719 27.6403 16.4907 29.8716C16.3265 30.2161 16.2125 30.5839 16.1526 30.9628C15.8214 32.9679 16.8347 35.0947 16.8347 35.0947Z" fill="white"/>
<path d="M22.3394 76.576V78.9087H26.0743L26.3692 77.9959L25.976 75.5618L22.3394 76.576Z" fill="#F7E5B7"/>
<path d="M6.90747 52.9452C6.90747 52.9452 6.90747 58.929 9.2664 59.1319C11.6253 59.3347 20.0782 60.4503 20.0782 60.4503C20.0782 60.4503 20.5696 70.3896 21.4542 73.635C22.3388 76.8805 21.5525 77.0833 22.3388 77.2862C23.1251 77.489 26.467 76.7791 26.3687 76.0691C26.2704 75.3592 25.8772 57.4077 25.8772 57.4077C25.8772 57.4077 26.7618 53.5537 14.9672 51.7281L6.90747 52.9452Z" fill="#030303"/>
<path d="M22.6336 78.1983C22.6336 78.1983 22.0439 76.8799 21.9456 77.2856C21.8473 77.6912 20.6678 81.241 21.8473 81.5452C23.0268 81.8495 26.7617 83.4722 29.219 83.3708C31.6762 83.2694 31.9711 83.168 31.9711 83.168C31.9711 83.168 32.6591 82.1537 31.7745 81.5452C30.8899 80.9367 27.2532 77.387 27.0566 76.9813C26.86 76.5756 25.3857 76.2713 25.3857 76.9813C25.3857 77.6912 23.3216 79.1111 22.6336 78.1983Z" fill="#030303"/>
<path opacity="0.1" d="M16.4905 29.8716C16.3262 30.2161 16.2122 30.5839 16.1523 30.9628C15.6629 31.2681 15.3356 31.19 14.7213 31.19C13.8101 31.19 13.4425 29.9882 12.8538 29.3645C12.8076 28.7853 12.0183 29.4152 12.0183 29.4152C12.0183 29.4152 17.5716 27.6403 16.4905 29.8716Z" fill="black"/>
<path d="M14.4757 31.1392C16.2671 31.1392 17.7192 29.6408 17.7192 27.7923C17.7192 25.9439 16.2671 24.4454 14.4757 24.4454C12.6844 24.4454 11.2322 25.9439 11.2322 27.7923C11.2322 29.6408 12.6844 31.1392 14.4757 31.1392Z" fill="white"/>
<path d="M20.0787 38.3404C20.0787 38.3404 19.5872 41.9915 19.2924 43.31C18.9975 44.6284 18.6044 50.7137 18.4078 51.525C18.2112 52.3364 17.0317 52.5393 14.6728 52.235C14.5247 52.2158 14.3758 52.2042 14.2266 52.2005C12.7739 52.1528 11.1118 52.7137 9.57357 53.1539C8.68897 53.4074 7.84467 53.6204 7.10455 53.6549C5.98406 53.7076 5.65578 52.4257 5.69411 51.0382C5.73048 49.7471 6.0853 48.3627 6.41653 47.8739C7.01315 46.9936 6.42636 39.0898 6.64654 36.4833V36.4823C6.67994 36.0848 6.73204 35.8109 6.80969 35.7034C7.39942 34.892 11.2327 32.8636 11.6622 32.9458C12.0907 33.0279 15.754 35.3991 15.754 35.3991C16.6386 35.3991 16.6101 34.4093 16.6101 34.4093C16.6101 34.4093 17.2283 35.602 18.4078 35.9063C19.5872 36.2105 20.0787 38.3404 20.0787 38.3404Z" fill="#6318AF"/>
<path d="M13.5085 51.4889C13.5085 51.4889 19.8398 51.6969 18.7307 52.4731C17.6216 53.2493 12.7072 53.9592 12.6089 52.945C12.5106 51.9308 13.5085 51.4889 13.5085 51.4889Z" fill="white"/>
<path opacity="0.1" d="M14.2266 52.2004C14.2472 52.5898 13.2319 53.4671 12.9036 54.0604C12.7217 54.389 11.3143 53.9559 9.57355 53.1537C8.23778 52.5351 6.94195 51.8284 5.69409 51.0381C5.73046 49.747 6.08528 48.3626 6.41652 47.8737C7.01314 46.9934 6.42634 39.0897 6.64652 36.4832V36.4822C6.69901 36.4547 6.75357 36.4316 6.80967 36.4132H7.98914C12.019 38.3402 7.3994 46.6567 7.3994 46.6567C7.3994 46.6567 13.4933 51.8292 14.083 52.032C14.1217 52.0396 14.1568 52.0602 14.1828 52.0907C14.2088 52.1212 14.2242 52.1598 14.2266 52.2004Z" fill="black"/>
<path d="M7.98936 35.8047H6.8099C6.8099 35.8047 5.72872 36.1089 4.84412 38.1374C3.95952 40.1658 0.715986 46.4539 3.56636 48.888C6.41674 51.3221 12.5107 54.1618 12.9038 53.4519C13.297 52.742 14.673 51.6263 14.0833 51.4235C13.4935 51.2206 7.39963 46.0482 7.39963 46.0482C7.39963 46.0482 12.0192 37.7317 7.98936 35.8047Z" fill="#6318AF"/>
<path d="M13.9773 26.2348C13.9773 26.2348 14.1196 24.2016 15.8756 25.0306C17.6316 25.8597 17.517 23.5746 16.9864 23.1708C16.4557 22.767 16.4725 22.667 14.5317 22.9372C12.5909 23.2074 8.82293 23.6651 10.0413 27.6918C11.2596 31.7186 12.3631 30.6827 12.3631 30.6827C12.3631 30.6827 11.3946 27.0592 12.3759 27.7495L13.3571 28.4399L13.875 28.3267L13.9773 26.2348Z" fill="#030303"/>
<path d="M86.4333 55.5122C86.4333 53.6815 73.2499 52.1975 56.9873 52.1975C40.7247 52.1975 27.5413 53.6815 27.5413 55.5122C27.5413 56.2217 29.5227 56.879 32.8951 57.4182V80.0958H34.5012V57.652C39.9026 58.3705 47.9709 58.8268 56.9873 58.8268C66.0782 58.8268 74.2057 58.363 79.6072 57.6342V80.0958H81.2133V57.3964C84.5039 56.8614 86.4333 56.2122 86.4333 55.5122Z" fill="#7E7E7E"/>
<path d="M60.6765 55.5819C63.9878 55.5819 66.6722 54.9008 66.6722 54.0606C66.6722 53.2204 63.9878 52.5393 60.6765 52.5393C57.3652 52.5393 54.6809 53.2204 54.6809 54.0606C54.6809 54.9008 57.3652 55.5819 60.6765 55.5819Z" fill="#F7E5B7"/>
<path d="M60.6767 55.3073C63.3908 55.3073 65.5911 54.749 65.5911 54.0603C65.5911 53.3716 63.3908 52.8134 60.6767 52.8134C57.9625 52.8134 55.7622 53.3716 55.7622 54.0603C55.7622 54.749 57.9625 55.3073 60.6767 55.3073Z" fill="#F7E5B7"/>
<path d="M38.365 56.799C41.6763 56.799 44.3606 56.1179 44.3606 55.2777C44.3606 54.4375 41.6763 53.7563 38.365 53.7563C35.0537 53.7563 32.3694 54.4375 32.3694 55.2777C32.3694 56.1179 35.0537 56.799 38.365 56.799Z" fill="#F7E5B7"/>
<path d="M38.3651 56.5243C41.0793 56.5243 43.2796 55.9661 43.2796 55.2774C43.2796 54.5887 41.0793 54.0304 38.3651 54.0304C35.651 54.0304 33.4507 54.5887 33.4507 55.2774C33.4507 55.9661 35.651 56.5243 38.3651 56.5243Z" fill="#F7E5B7"/>
<path d="M60.537 53.9529C62.1156 53.9529 63.3953 53.7444 63.3953 53.4872C63.3953 53.23 62.1156 53.0215 60.537 53.0215C58.9584 53.0215 57.6787 53.23 57.6787 53.4872C57.6787 53.7444 58.9584 53.9529 60.537 53.9529Z" fill="white"/>
<path d="M59.0135 53.3127C59.512 53.3127 59.9161 53.0868 59.9161 52.8082C59.9161 52.5296 59.512 52.3037 59.0135 52.3037C58.515 52.3037 58.1108 52.5296 58.1108 52.8082C58.1108 53.0868 58.515 53.3127 59.0135 53.3127Z" fill="#F7E5B7"/>
<path d="M58.6751 53.3127C59.1736 53.3127 59.5777 53.0868 59.5777 52.8082C59.5777 52.5296 59.1736 52.3037 58.6751 52.3037C58.1766 52.3037 57.7725 52.5296 57.7725 52.8082C57.7725 53.0868 58.1766 53.3127 58.6751 53.3127Z" fill="#F7E5B7"/>
<path d="M62.6243 53.4293C63.1228 53.4293 63.5269 53.2034 63.5269 52.9248C63.5269 52.6462 63.1228 52.4203 62.6243 52.4203C62.1258 52.4203 61.7217 52.6462 61.7217 52.9248C61.7217 53.2034 62.1258 53.4293 62.6243 53.4293Z" fill="#F7E5B7"/>
<path d="M60.5554 53.3127C61.0539 53.3127 61.4581 53.0868 61.4581 52.8082C61.4581 52.5296 61.0539 52.3037 60.5554 52.3037C60.0569 52.3037 59.6528 52.5296 59.6528 52.8082C59.6528 53.0868 60.0569 53.3127 60.5554 53.3127Z" fill="#F7E5B7"/>
<path d="M62.0972 53.3127C62.5957 53.3127 62.9998 53.0868 62.9998 52.8082C62.9998 52.5296 62.5957 52.3037 62.0972 52.3037C61.5987 52.3037 61.1946 52.5296 61.1946 52.8082C61.1946 53.0868 61.5987 53.3127 62.0972 53.3127Z" fill="#F7E5B7"/>
<path d="M63.2634 52.498C61.6321 53.0692 59.8018 53.0692 57.7725 52.498V52.4193C57.7721 51.8255 57.993 51.2542 58.3895 50.8237C58.7859 50.3932 59.3275 50.1364 59.9023 50.1065C60.3861 50.0814 60.8708 50.082 61.3545 50.1084C61.8716 50.1395 62.3576 50.3737 62.7126 50.763C63.0676 51.1522 63.2647 51.6669 63.2634 52.2014V52.498Z" fill="#7E7E7E"/>
<path d="M62.4622 54.6365C61.2567 54.7622 60.0419 54.7622 58.8363 54.6365C58.5504 54.6076 58.285 54.47 58.0919 54.2505C57.8987 54.031 57.7915 53.7452 57.791 53.4487H63.5076C63.5071 53.7452 63.3999 54.031 63.2067 54.2505C63.0135 54.47 62.7482 54.6076 62.4622 54.6365Z" fill="#7E7E7E"/>
<path d="M59.7664 50.8289C59.6353 50.8851 59.4947 50.9141 59.3527 50.9141C59.2107 50.9141 59.0701 50.8851 58.939 50.8289C59.0701 50.7726 59.2107 50.7437 59.3527 50.7437C59.4947 50.7437 59.6353 50.7726 59.7664 50.8289Z" fill="#F7E5B7"/>
<path d="M60.5935 51.178C60.4624 51.2342 60.3218 51.2632 60.1798 51.2632C60.0378 51.2632 59.8972 51.2342 59.7661 51.178C59.8972 51.1217 60.0378 51.0928 60.1798 51.0928C60.3218 51.0928 60.4624 51.1217 60.5935 51.178Z" fill="#F7E5B7"/>
<path d="M60.6689 50.5573C60.5379 50.6135 60.3973 50.6425 60.2552 50.6425C60.1132 50.6425 59.9726 50.6135 59.8416 50.5573C59.9726 50.501 60.1132 50.472 60.2552 50.472C60.3973 50.472 60.5379 50.501 60.6689 50.5573Z" fill="#F7E5B7"/>
<path d="M62.2107 50.5573C62.0796 50.6135 61.939 50.6425 61.797 50.6425C61.655 50.6425 61.5144 50.6135 61.3833 50.5573C61.5144 50.501 61.655 50.472 61.797 50.472C61.939 50.472 62.0796 50.501 62.2107 50.5573Z" fill="#F7E5B7"/>
<path d="M61.7971 50.9064C61.666 50.9626 61.5254 50.9916 61.3834 50.9916C61.2414 50.9916 61.1008 50.9626 60.9697 50.9064C61.1008 50.8501 61.2414 50.8212 61.3834 50.8212C61.5254 50.8212 61.666 50.8501 61.7971 50.9064Z" fill="#F7E5B7"/>
<path d="M38.3234 55.1699C39.902 55.1699 41.1816 54.9614 41.1816 54.7042C41.1816 54.447 39.902 54.2385 38.3234 54.2385C36.7448 54.2385 35.4651 54.447 35.4651 54.7042C35.4651 54.9614 36.7448 55.1699 38.3234 55.1699Z" fill="white"/>
<path d="M36.8008 54.5297C37.2993 54.5297 37.7034 54.3039 37.7034 54.0252C37.7034 53.7466 37.2993 53.5208 36.8008 53.5208C36.3023 53.5208 35.8982 53.7466 35.8982 54.0252C35.8982 54.3039 36.3023 54.5297 36.8008 54.5297Z" fill="#F7E5B7"/>
<path d="M36.4624 54.5297C36.9609 54.5297 37.365 54.3039 37.365 54.0252C37.365 53.7466 36.9609 53.5208 36.4624 53.5208C35.9639 53.5208 35.5598 53.7466 35.5598 54.0252C35.5598 54.3039 35.9639 54.5297 36.4624 54.5297Z" fill="#F7E5B7"/>
<path d="M40.4107 54.6463C40.9092 54.6463 41.3133 54.4204 41.3133 54.1418C41.3133 53.8632 40.9092 53.6373 40.4107 53.6373C39.9122 53.6373 39.5081 53.8632 39.5081 54.1418C39.5081 54.4204 39.9122 54.6463 40.4107 54.6463Z" fill="#F7E5B7"/>
<path d="M38.3426 54.5297C38.8411 54.5297 39.2452 54.3039 39.2452 54.0252C39.2452 53.7466 38.8411 53.5208 38.3426 53.5208C37.8441 53.5208 37.4399 53.7466 37.4399 54.0252C37.4399 54.3039 37.8441 54.5297 38.3426 54.5297Z" fill="#F7E5B7"/>
<path d="M39.8845 54.5297C40.383 54.5297 40.7872 54.3039 40.7872 54.0252C40.7872 53.7466 40.383 53.5208 39.8845 53.5208C39.386 53.5208 38.9819 53.7466 38.9819 54.0252C38.9819 54.3039 39.386 54.5297 39.8845 54.5297Z" fill="#F7E5B7"/>
<path d="M41.0507 53.715C39.4194 54.2862 37.5891 54.2862 35.5598 53.715V53.6364C35.5595 53.0425 35.7804 52.4713 36.1768 52.0408C36.5733 51.6103 37.1149 51.3535 37.6897 51.3235C38.1734 51.2984 38.6581 51.2991 39.1418 51.3255C39.659 51.3565 40.1449 51.5908 40.4999 51.98C40.8549 52.3692 41.052 52.884 41.0507 53.4185V53.715Z" fill="#7E7E7E"/>
<path d="M40.2496 55.8536C39.044 55.9792 37.8293 55.9792 36.6237 55.8536C36.3377 55.8246 36.0724 55.687 35.8792 55.4675C35.686 55.248 35.5788 54.9623 35.5784 54.6658H41.2949C41.2945 54.9623 41.1873 55.248 40.9941 55.4675C40.8009 55.687 40.5356 55.8246 40.2496 55.8536Z" fill="#7E7E7E"/>
<path d="M37.5527 52.0459C37.4216 52.1022 37.281 52.1311 37.139 52.1311C36.997 52.1311 36.8564 52.1022 36.7253 52.0459C36.8564 51.9897 36.997 51.9607 37.139 51.9607C37.281 51.9607 37.4216 51.9897 37.5527 52.0459Z" fill="#F7E5B7"/>
<path d="M38.3799 52.395C38.2488 52.4513 38.1082 52.4802 37.9662 52.4802C37.8242 52.4802 37.6836 52.4513 37.5525 52.395C37.6836 52.3388 37.8242 52.3098 37.9662 52.3098C38.1082 52.3098 38.2488 52.3388 38.3799 52.395Z" fill="#F7E5B7"/>
<path d="M38.4551 51.7743C38.324 51.8306 38.1834 51.8595 38.0414 51.8595C37.8994 51.8595 37.7588 51.8306 37.6277 51.7743C37.7588 51.718 37.8994 51.6891 38.0414 51.6891C38.1834 51.6891 38.324 51.718 38.4551 51.7743Z" fill="#F7E5B7"/>
<path d="M39.9971 51.7743C39.866 51.8306 39.7254 51.8595 39.5834 51.8595C39.4414 51.8595 39.3008 51.8306 39.1697 51.7743C39.3008 51.718 39.4414 51.6891 39.5834 51.6891C39.7254 51.6891 39.866 51.718 39.9971 51.7743Z" fill="#F7E5B7"/>
<path d="M39.5835 52.1234C39.4524 52.1797 39.3118 52.2086 39.1698 52.2086C39.0278 52.2086 38.8872 52.1797 38.7561 52.1234C38.8872 52.0672 39.0278 52.0382 39.1698 52.0382C39.3118 52.0382 39.4524 52.0672 39.5835 52.1234Z" fill="#F7E5B7"/>
<path d="M65.8341 53.6477L65.8479 53.9619L65.8655 54.3693C65.8655 54.3693 64.052 54.4751 63.6866 54.8734C63.6781 54.882 63.6703 54.8912 63.6633 54.9011L62.9369 54.737L62.9351 54.3677C62.9351 54.3677 62.9451 54.362 62.9646 54.3511C62.969 54.3488 62.9746 54.3457 62.9802 54.3427C63.8691 53.8935 64.8444 53.656 65.8341 53.6477Z" fill="#F7E5B7"/>
<path opacity="0.1" d="M65.8339 53.6477L65.8477 53.9619C65.0435 53.9875 63.5215 54.4822 63.5215 54.4822L62.9644 54.3511C63.8571 53.8961 64.8382 53.6556 65.8339 53.6477Z" fill="black"/>
<path opacity="0.1" d="M62.9801 54.3435L63.5217 54.4828L63.6866 54.8733C63.6781 54.8818 63.6703 54.8911 63.6633 54.9009L62.9369 54.7371L62.9351 54.3685C62.9351 54.3685 62.9451 54.3628 62.9646 54.352C62.969 54.3496 62.9746 54.3465 62.9801 54.3435Z" fill="white"/>
<path d="M43.9157 54.9667L43.9295 55.2808L43.9471 55.6883C43.9471 55.6883 42.1335 55.794 41.7682 56.1924C41.7597 56.201 41.7519 56.2102 41.7448 56.2201L41.0184 56.056L41.0166 55.6867C41.0166 55.6867 41.0266 55.6809 41.0461 55.6701C41.0506 55.6677 41.0561 55.6647 41.0617 55.6616C41.9506 55.2125 42.9259 54.975 43.9157 54.9667Z" fill="#F7E5B7"/>
<path opacity="0.1" d="M43.9155 54.9667L43.9293 55.2808C43.1251 55.3065 41.6031 55.8012 41.6031 55.8012L41.0459 55.6701C41.9387 55.215 42.9197 54.9746 43.9155 54.9667Z" fill="black"/>
<path opacity="0.1" d="M41.0617 55.6619L41.6033 55.8011L41.7682 56.1916C41.7597 56.2002 41.7519 56.2094 41.7448 56.2192L41.0184 56.0555L41.0166 55.6869C41.0166 55.6869 41.0266 55.6811 41.0461 55.6703C41.0506 55.668 41.0561 55.6649 41.0617 55.6619Z" fill="white"/>
<path d="M76.7567 44.2382C76.6019 44.0787 76.4205 43.9494 76.2212 43.8565V39.9157C76.2212 39.8695 76.2034 39.8252 76.1718 39.7925C76.1401 39.7598 76.0972 39.7415 76.0524 39.7415H75.1069C75.0621 39.7415 75.0192 39.7598 74.9875 39.7925C74.9559 39.8252 74.9381 39.8695 74.9381 39.9157V43.7809C74.5963 43.8979 74.2989 44.1229 74.0881 44.4242C73.8773 44.7254 73.7638 45.0875 73.7637 45.459V53.9126C73.7637 54.0144 73.7831 54.1151 73.8208 54.2091C73.8585 54.3031 73.9138 54.3885 73.9836 54.4604C74.0533 54.5323 74.136 54.5894 74.2271 54.6283C74.3182 54.6673 74.4158 54.6873 74.5144 54.6873H76.5396C76.7378 54.6873 76.9279 54.6061 77.068 54.4615C77.2082 54.3168 77.2869 54.1207 77.2869 53.9162V45.5587C77.2872 45.3134 77.2405 45.0704 77.1495 44.8438C77.0585 44.6172 76.925 44.4114 76.7567 44.2382Z" fill="#7E7E7E"/>
<path d="M77.2869 46.6982H73.7637V51.5007H77.2869V46.6982Z" fill="#F7E5B7"/>
<path d="M76.2982 40.0107H76.2221V39.9157C76.2221 39.8695 76.2043 39.8252 76.1726 39.7925C76.1409 39.7598 76.098 39.7415 76.0532 39.7415H75.1078C75.063 39.7415 75.02 39.7598 74.9884 39.7925C74.9567 39.8252 74.9389 39.8695 74.9389 39.9157V40.0107H74.8628V40.4147H74.9389V42.4793H76.2221V40.4147H76.2982V40.0107Z" fill="#F7E5B7"/>
<path d="M48.5469 47.6591C48.4537 47.4538 48.3801 47.3085 48.3543 47.2585C46.7728 47.6613 45.7177 47.321 45.5513 47.2608C45.4699 47.4193 44.9619 48.4329 44.7566 49.4046C44.5711 50.2811 44.6788 50.8687 45.0766 51.1511L45.0884 51.1598L45.0909 51.1616C45.5301 51.4601 45.9489 51.7246 46.3359 51.9474C46.388 51.9774 46.4372 52.0052 46.4833 52.0309L46.4883 52.0337L46.4917 52.0382C46.5449 52.1073 46.5943 52.1792 46.6398 52.2538C46.7253 52.3772 46.7772 52.5219 46.7901 52.673V57.0264L46.7634 57.027C45.7547 57.0482 45.1302 57.2247 45.1302 57.376C45.1302 57.542 45.879 57.7269 46.9533 57.7269C48.0277 57.7269 48.7764 57.542 48.7764 57.376C48.7764 57.2269 48.1626 57.0514 47.1709 57.0278L47.1442 57.0271L47.1691 53.0002C47.1697 52.7276 47.2311 52.4587 47.3486 52.2145C47.3687 52.1735 47.3902 52.1335 47.4126 52.0959C47.4306 52.0657 47.4497 52.0361 47.4693 52.0082L47.4729 52.0031L47.4782 52.0001C47.5279 51.9721 47.5807 51.9417 47.6365 51.9091L47.643 51.9054C48.0092 51.692 48.4038 51.4418 48.8159 51.1615C49.1838 50.9112 49.3119 50.4053 49.1966 49.658C49.0868 48.9454 48.7827 48.1777 48.5469 47.6591Z" fill="#F7E5B7"/>
<path d="M48.6413 51.0702C48.2093 51.364 47.8526 51.5844 47.5798 51.7432H47.5795C47.1816 51.7151 46.782 51.7267 46.3862 51.7778C46.1065 51.6167 45.7293 51.3857 45.2652 51.0702C45.2608 51.0671 45.2564 51.0641 45.252 51.0608V51.0606C44.8263 50.7584 44.8158 50.1185 44.9542 49.4641C45.3065 49.4237 45.8682 49.4414 46.623 49.7196C47.5167 50.049 48.4522 49.8627 48.9943 49.6933C49.0834 50.2707 49.0291 50.8064 48.6413 51.0702Z" fill="#F7E5B7"/>
<path d="M46.0728 49.2257C46.1403 49.2257 46.1951 49.1694 46.1951 49.1C46.1951 49.0305 46.1403 48.9742 46.0728 48.9742C46.0052 48.9742 45.9504 49.0305 45.9504 49.1C45.9504 49.1694 46.0052 49.2257 46.0728 49.2257Z" fill="#F7E5B7"/>
<path d="M45.7305 50.3872C45.798 50.3872 45.8528 50.3309 45.8528 50.2615C45.8528 50.192 45.798 50.1357 45.7305 50.1357C45.6629 50.1357 45.6082 50.192 45.6082 50.2615C45.6082 50.3309 45.6629 50.3872 45.7305 50.3872Z" fill="white"/>
<path d="M46.3669 49.4797C46.4079 49.4797 46.4411 49.4458 46.4411 49.404C46.4411 49.3622 46.4079 49.3282 46.3669 49.3282C46.3259 49.3282 46.2927 49.3622 46.2927 49.404C46.2927 49.4458 46.3259 49.4797 46.3669 49.4797Z" fill="#F7E5B7"/>
<path d="M46.6611 50.9183C46.7021 50.9183 46.7353 50.8844 46.7353 50.8426C46.7353 50.8008 46.7021 50.7668 46.6611 50.7668C46.6201 50.7668 46.5869 50.8008 46.5869 50.8426C46.5869 50.8844 46.6201 50.9183 46.6611 50.9183Z" fill="white"/>
<path d="M46.1469 50.994C46.1879 50.994 46.2211 50.9601 46.2211 50.9183C46.2211 50.8764 46.1879 50.8425 46.1469 50.8425C46.106 50.8425 46.0728 50.8764 46.0728 50.9183C46.0728 50.9601 46.106 50.994 46.1469 50.994Z" fill="white"/>
<path d="M47.6389 48.4696C47.6798 48.4696 47.713 48.4357 47.713 48.3938C47.713 48.352 47.6798 48.3181 47.6389 48.3181C47.5979 48.3181 47.5647 48.352 47.5647 48.3938C47.5647 48.4357 47.5979 48.4696 47.6389 48.4696Z" fill="#F7E5B7"/>
<path d="M54.2844 43.5545C54.1912 43.3492 54.1176 43.2039 54.0918 43.1539C52.5104 43.5566 51.4552 43.2163 51.2888 43.1561C51.2074 43.3147 50.6994 44.3283 50.4941 45.3C50.3086 46.1765 50.4163 46.7641 50.8141 47.0465L50.8259 47.0552L50.8285 47.057C51.2676 47.3555 51.6865 47.6199 52.0734 47.8428C52.1255 47.8728 52.1747 47.9006 52.2209 47.9263L52.2258 47.929L52.2293 47.9336C52.2824 48.0026 52.3318 48.0746 52.3774 48.1492C52.4629 48.2726 52.5148 48.4173 52.5276 48.5684V52.9218L52.501 52.9224C51.4922 52.9436 50.8678 53.1201 50.8678 53.2714C50.8678 53.4373 51.6165 53.6223 52.6909 53.6223C53.7653 53.6223 54.514 53.4373 54.514 53.2714C54.514 53.1223 53.9001 52.9468 52.9085 52.9232L52.8817 52.9225L52.9067 48.8956C52.9073 48.623 52.9687 48.3541 53.0862 48.1099C53.1062 48.0689 53.1277 48.0289 53.1501 47.9913C53.1681 47.961 53.1872 47.9315 53.2068 47.9036L53.2104 47.8985L53.2158 47.8955C53.2655 47.8675 53.3182 47.8371 53.374 47.8045L53.3806 47.8008C53.7468 47.5874 54.1413 47.3372 54.5534 47.0569C54.9213 46.8066 55.0494 46.3007 54.9342 45.5534C54.8243 44.8408 54.5202 44.0731 54.2844 43.5545Z" fill="#F7E5B7"/>
<path d="M54.3796 46.9656C53.9475 47.2594 53.5908 47.4798 53.3181 47.6386H53.3178C52.9199 47.6105 52.5202 47.6221 52.1244 47.6731C51.8448 47.5121 51.4676 47.2811 51.0035 46.9656C50.9991 46.9625 50.9947 46.9595 50.9903 46.9562V46.956C50.5646 46.6538 50.554 46.0138 50.6925 45.3595C51.0448 45.3191 51.6065 45.3368 52.3613 45.615C53.2549 45.9444 54.1905 45.7581 54.7326 45.5887C54.8217 46.1661 54.7673 46.7017 54.3796 46.9656Z" fill="#F7E5B7"/>
<path d="M51.8103 45.1223C51.8779 45.1223 51.9326 45.066 51.9326 44.9966C51.9326 44.9271 51.8779 44.8708 51.8103 44.8708C51.7428 44.8708 51.688 44.9271 51.688 44.9966C51.688 45.066 51.7428 45.1223 51.8103 45.1223Z" fill="#F7E5B7"/>
<path d="M51.468 46.2832C51.5356 46.2832 51.5903 46.2269 51.5903 46.1575C51.5903 46.088 51.5356 46.0317 51.468 46.0317C51.4005 46.0317 51.3457 46.088 51.3457 46.1575C51.3457 46.2269 51.4005 46.2832 51.468 46.2832Z" fill="white"/>
<path d="M52.1054 45.3757C52.1464 45.3757 52.1796 45.3418 52.1796 45.3C52.1796 45.2582 52.1464 45.2242 52.1054 45.2242C52.0645 45.2242 52.0312 45.2582 52.0312 45.3C52.0312 45.3418 52.0645 45.3757 52.1054 45.3757Z" fill="#F7E5B7"/>
<path d="M52.3986 46.8143C52.4396 46.8143 52.4728 46.7804 52.4728 46.7386C52.4728 46.6968 52.4396 46.6628 52.3986 46.6628C52.3577 46.6628 52.3245 46.6968 52.3245 46.7386C52.3245 46.7804 52.3577 46.8143 52.3986 46.8143Z" fill="white"/>
<path d="M51.8852 46.89C51.9262 46.89 51.9594 46.8561 51.9594 46.8143C51.9594 46.7724 51.9262 46.7385 51.8852 46.7385C51.8442 46.7385 51.811 46.7724 51.811 46.8143C51.811 46.8561 51.8442 46.89 51.8852 46.89Z" fill="white"/>
<path d="M53.3774 44.3656C53.4184 44.3656 53.4516 44.3317 53.4516 44.2898C53.4516 44.248 53.4184 44.2141 53.3774 44.2141C53.3364 44.2141 53.3032 44.248 53.3032 44.2898C53.3032 44.3317 53.3364 44.3656 53.3774 44.3656Z" fill="#F7E5B7"/>
</g>
</svg>


