<!-- sample rectangle -->
<svg width="27" height="26" viewBox="0 0 27 26" fill="none" xmlns="http://www.w3.org/2000/svg">
<path d="M13.5 1L4.16667 10.3333V23.6667C4.16667 24.403 4.76362 25 5.5 25H9.5C10.2364 25 10.8333 24.403 10.8333 23.6667V18.3333C10.8333 17.597 11.4303 17 12.1667 17H14.8333C15.5697 17 16.1667 17.597 16.1667 18.3333V23.6667C16.1667 24.403 16.7636 25 17.5 25H21.5C22.2364 25 22.8333 24.403 22.8333 23.6667V10.3333L13.5 1Z" fill="#6318AF"/>
<path d="M1.5 13L4.16667 10.3333M4.16667 10.3333L13.5 1L22.8333 10.3333M4.16667 10.3333V23.6667C4.16667 24.403 4.76362 25 5.5 25H9.5M22.8333 10.3333L25.5 13M22.8333 10.3333V23.6667C22.8333 24.403 22.2364 25 21.5 25H17.5M9.5 25C10.2364 25 10.8333 24.403 10.8333 23.6667V18.3333C10.8333 17.597 11.4303 17 12.1667 17H14.8333C15.5697 17 16.1667 17.597 16.1667 18.3333V23.6667C16.1667 24.403 16.7636 25 17.5 25M9.5 25H17.5" stroke="#6318AF" stroke-width="1.5" stroke-linecap="round" stroke-linejoin="round"/>
</svg>
