<!-- sample rectangle -->
<svg width="62" height="87" viewBox="0 0 62 87" fill="none" xmlns="http://www.w3.org/2000/svg">
<path d="M51.2666 83.4765C51.6312 83.4999 51.8327 83.0359 51.5569 82.7654L51.5294 82.6536C51.5331 82.6447 51.5367 82.6358 51.5403 82.6268C51.909 81.7262 53.1585 81.7324 53.524 82.6344C53.8485 83.4349 54.2616 84.2369 54.3633 85.0834C54.4089 85.457 54.3883 85.8377 54.3074 86.2043C55.0676 84.503 55.4677 82.6452 55.4677 80.7769C55.4677 80.3074 55.4426 79.838 55.3913 79.3698C55.3492 78.9868 55.291 78.6061 55.2158 78.2289C54.8089 76.1901 53.9279 74.2482 52.6571 72.6263C52.0461 72.2841 51.5367 71.7493 51.2289 71.1082C51.1184 70.877 51.0318 70.6283 50.9907 70.3749C51.0602 70.3843 51.2529 69.2995 51.2004 69.2329C51.2973 69.0823 51.4707 69.0074 51.5766 68.8604C52.1028 68.1294 52.8279 68.257 53.2064 69.2504C54.015 69.6685 54.0229 70.3619 53.5267 71.0288C53.211 71.4531 53.1677 72.0272 52.8907 72.4815C52.9192 72.5188 52.9488 72.555 52.9773 72.5924C53.4999 73.279 53.9518 74.017 54.3328 74.7924C54.2251 73.9307 54.3841 72.8926 54.6551 72.2234C54.9635 71.4609 55.5418 70.8188 56.051 70.1597C56.6626 69.3679 57.9168 69.7135 58.0245 70.7171C58.0256 70.7268 58.0266 70.7365 58.0276 70.7462C57.952 70.79 57.8779 70.8364 57.8055 70.8854C57.3927 71.1652 57.5353 71.8208 58.0245 71.8982L58.0356 71.8999C58.0082 72.179 57.9615 72.4558 57.8931 72.7278C58.5463 75.316 57.1361 76.2587 55.1224 76.301C55.0779 76.3244 55.0346 76.3477 54.9901 76.3699C55.1942 76.9584 55.3572 77.5622 55.478 78.174C55.5862 78.7147 55.6615 79.2612 55.7036 79.81C55.7561 80.5024 55.7515 81.1984 55.6945 81.8897L55.6979 81.8652C55.8427 81.1038 56.2462 80.3927 56.832 79.8999C57.7047 79.1654 58.9377 78.8949 59.8792 78.3046C60.3324 78.0204 60.9132 78.3876 60.8341 78.926L60.8303 78.9517C60.6901 79.0101 60.5533 79.0778 60.4211 79.1537C60.3455 79.1975 60.2714 79.2439 60.199 79.2929C59.7862 79.5727 59.9288 80.2283 60.418 80.3057L60.4291 80.3074C60.4371 80.3086 60.4439 80.3098 60.4519 80.3109C60.2114 80.896 59.8763 81.4389 59.4569 81.9072C59.0484 84.1666 57.2941 84.3809 55.4176 83.723H55.4164C55.2113 84.6385 54.9115 85.5329 54.5263 86.3854H51.3463C51.3349 86.3492 51.3247 86.3118 51.3144 86.2756C51.6085 86.2943 51.9048 86.2768 52.1943 86.2219C51.9584 85.9253 51.7225 85.6263 51.4865 85.3298C51.4808 85.3239 51.4763 85.3181 51.4717 85.3122C51.352 85.1604 51.2312 85.0098 51.1115 84.858L51.1115 84.8578C51.104 84.3918 51.1586 83.9273 51.2666 83.4765Z" fill="#F7E5B7"/>
<path d="M17.9801 80.9239C17.2955 80.9678 16.9172 80.0964 17.4351 79.5885L17.4867 79.3786C17.4799 79.3618 17.473 79.345 17.4662 79.3282C16.7739 77.6369 14.4275 77.6486 13.741 79.3424C13.1318 80.8458 12.3561 82.3517 12.1651 83.9413C12.0795 84.643 12.118 85.3578 12.27 86.0464C10.8424 82.8515 10.0911 79.3627 10.0911 75.8542C10.0911 74.9727 10.1382 74.0912 10.2345 73.2119C10.3137 72.4927 10.4229 71.7778 10.5641 71.0695C11.3282 67.2409 12.9827 63.5943 15.3691 60.5485C16.5163 59.906 17.4731 58.9017 18.051 57.6979C18.2586 57.2637 18.4212 56.7966 18.4983 56.3208C18.3677 56.3383 18.006 54.3012 18.1045 54.1762C17.9225 53.8933 17.5969 53.7527 17.3982 53.4767C16.4099 52.104 15.0483 52.3437 14.3375 54.2091C12.819 54.9943 12.8043 56.2964 13.7361 57.5487C14.3288 58.3455 14.4103 59.4236 14.9304 60.2766C14.8768 60.3467 14.8212 60.4147 14.7677 60.4849C13.7865 61.7743 12.9378 63.1602 12.2224 64.6162C12.4246 62.998 12.1261 61.0486 11.6171 59.792C11.0378 58.3602 9.95201 57.1543 8.99581 55.9165C7.84725 54.4298 5.49204 55.0786 5.28969 56.9633C5.28773 56.9816 5.28582 56.9998 5.28395 57.0181C5.42598 57.1002 5.56512 57.1874 5.70103 57.2795C6.47629 57.8047 6.20836 59.036 5.28977 59.1813L5.26897 59.1845C5.32034 59.7086 5.40809 60.2283 5.5365 60.7393C4.30982 65.5995 6.95815 67.3697 10.7396 67.4492C10.8231 67.4931 10.9044 67.5369 10.9879 67.5786C10.6048 68.6838 10.2987 69.8175 10.0718 70.9665C9.86852 71.9817 9.72724 73.008 9.64806 74.0386C9.5496 75.3389 9.55816 76.6458 9.66519 77.944L9.65877 77.8979C9.38696 76.4682 8.62927 75.1328 7.52914 74.2074C5.89028 72.8282 3.57488 72.3203 1.80684 71.2116C0.955754 70.6779 -0.134846 71.3676 0.0136908 72.3785L0.0209223 72.4269C0.284179 72.5365 0.54101 72.6637 0.78929 72.8062C0.931317 72.8883 1.07046 72.9755 1.20637 73.0676C1.98163 73.5929 1.7137 74.8242 0.795112 74.9695L0.774294 74.9727C0.759318 74.9749 0.746469 74.9771 0.731509 74.9793C1.18312 76.0779 1.81235 77.0976 2.59999 77.9769C3.36701 82.2197 6.66136 82.6222 10.1853 81.3867H10.1874C10.5727 83.1058 11.1356 84.7855 11.859 86.3863H17.8305C17.8519 86.3183 17.8712 86.2481 17.8904 86.1801C17.3382 86.2152 16.7818 86.1823 16.2381 86.0793C16.6812 85.5223 17.1242 84.9609 17.5672 84.404C17.5779 84.393 17.5865 84.382 17.5951 84.3711C17.8198 84.086 18.0467 83.8032 18.2714 83.5181L18.2715 83.5178C18.2856 82.6427 18.1832 81.7705 17.9803 80.924L17.9801 80.9239Z" fill="#F7E5B7"/>
<path d="M39.7127 26.6118C39.7127 26.5702 39.7109 26.5304 39.7091 26.4889C39.7091 26.4545 39.7074 26.4202 39.7056 26.3858H37.7416C37.6957 26.4346 37.6498 26.4798 37.6022 26.5196C37.581 26.5395 37.558 26.5576 37.5369 26.5738C37.521 26.5883 37.5051 26.5991 37.4892 26.61C37.4451 26.6407 37.4028 26.6678 37.3586 26.6895C37.3428 26.6986 37.3269 26.7058 37.311 26.7112C37.2722 26.7293 37.2334 26.7402 37.1945 26.7474H39.7144C39.7144 26.7022 39.7144 26.657 39.7127 26.6118ZM35.8005 26.657C35.7387 26.6534 35.6787 26.648 35.6169 26.6443C35.4211 26.6299 35.2217 26.6172 35.0223 26.6028C34.9217 26.5955 34.8228 26.5901 34.724 26.5829C34.7134 26.5829 34.7046 26.5793 34.694 26.5756C34.6887 26.572 34.6834 26.5702 34.6781 26.5648C34.6676 26.5594 34.6552 26.5485 34.6446 26.5359C34.634 26.525 34.6234 26.5106 34.6129 26.4961C34.604 26.4834 34.5934 26.4672 34.5846 26.4527C34.5723 26.431 34.5617 26.4093 34.5493 26.3858H33.8311C33.8205 26.4057 33.8099 26.422 33.8011 26.4364L33.7976 26.44C33.7888 26.4527 33.7799 26.4654 33.7711 26.4744C33.7499 26.4979 33.7305 26.5106 33.7111 26.5087C33.6741 26.5051 33.637 26.5015 33.6017 26.4925C33.5876 26.4907 33.5752 26.487 33.5611 26.4834C33.5488 26.4798 33.5347 26.4762 33.5223 26.4726C33.4941 26.4635 33.4658 26.4527 33.4394 26.4419C33.4323 26.4382 33.4253 26.4364 33.4182 26.4328C33.3882 26.4183 33.3582 26.4039 33.3282 26.3858H31.1012C31.0147 26.5033 30.9353 26.6244 30.8595 26.7474H36.9881C36.6298 26.7148 36.224 26.6859 35.8005 26.657ZM39.7127 26.6118C39.7127 26.5702 39.7109 26.5304 39.7091 26.4889C39.7091 26.4545 39.7074 26.4202 39.7056 26.3858H37.7416C37.6957 26.4346 37.6498 26.4798 37.6022 26.5196C37.581 26.5395 37.558 26.5576 37.5369 26.5738C37.521 26.5883 37.5051 26.5991 37.4892 26.61C37.4451 26.6407 37.4028 26.6678 37.3586 26.6895C37.3428 26.6986 37.3269 26.7058 37.311 26.7112C37.2722 26.7293 37.2334 26.7402 37.1945 26.7474H39.7144C39.7144 26.7022 39.7144 26.657 39.7127 26.6118ZM35.8005 26.657C35.7387 26.6534 35.6787 26.648 35.6169 26.6443C35.4211 26.6299 35.2217 26.6172 35.0223 26.6028C34.9217 26.5955 34.8228 26.5901 34.724 26.5829C34.7134 26.5829 34.7046 26.5793 34.694 26.5756C34.6887 26.572 34.6834 26.5702 34.6781 26.5648C34.6676 26.5594 34.6552 26.5485 34.6446 26.5359C34.634 26.525 34.6234 26.5106 34.6129 26.4961C34.604 26.4834 34.5934 26.4672 34.5846 26.4527C34.5723 26.431 34.5617 26.4093 34.5493 26.3858H33.8311C33.8205 26.4057 33.8099 26.422 33.8011 26.4364L33.7976 26.44C33.7888 26.4527 33.7799 26.4654 33.7711 26.4744C33.7499 26.4979 33.7305 26.5106 33.7111 26.5087C33.6741 26.5051 33.637 26.5015 33.6017 26.4925C33.5876 26.4907 33.5752 26.487 33.5611 26.4834C33.5488 26.4798 33.5347 26.4762 33.5223 26.4726C33.4941 26.4635 33.4658 26.4527 33.4394 26.4419C33.4323 26.4382 33.4253 26.4364 33.4182 26.4328C33.3882 26.4183 33.3582 26.4039 33.3282 26.3858H31.1012C31.0147 26.5033 30.9353 26.6244 30.8595 26.7474H36.9881C36.6298 26.7148 36.224 26.6859 35.8005 26.657ZM58.6438 26.3858H8.18204C6.33093 26.3858 4.82568 27.928 4.82568 29.8245V83.1507C4.82568 85.0471 6.33093 86.5893 8.18204 86.5893H58.6438C60.4949 86.5893 62.0001 85.0471 62.0001 83.1507V29.8245C62.0001 27.928 60.4949 26.3858 58.6438 26.3858ZM61.6472 83.1506C61.6472 84.8483 60.3008 86.2277 58.6438 86.2277H8.18204C6.52504 86.2277 5.17861 84.8483 5.17861 83.1506V29.8245C5.17861 28.1268 6.52503 26.7474 8.18204 26.7474H58.6438C60.3008 26.7474 61.6472 28.1268 61.6472 29.8245V83.1506ZM35.8005 26.657C35.7387 26.6534 35.6787 26.648 35.6169 26.6443C35.4211 26.6299 35.2217 26.6172 35.0223 26.6028C34.9217 26.5955 34.8228 26.5901 34.724 26.5829C34.7134 26.5829 34.7046 26.5793 34.694 26.5756C34.6887 26.572 34.6834 26.5702 34.6781 26.5648C34.6676 26.5594 34.6552 26.5485 34.6446 26.5359C34.634 26.525 34.6234 26.5106 34.6129 26.4961C34.604 26.4834 34.5934 26.4672 34.5846 26.4527C34.5723 26.431 34.5617 26.4093 34.5493 26.3858H33.8311C33.8205 26.4057 33.8099 26.422 33.8011 26.4364L33.7976 26.44C33.7888 26.4527 33.7799 26.4654 33.7711 26.4744C33.7499 26.4979 33.7305 26.5106 33.7111 26.5087C33.6741 26.5051 33.637 26.5015 33.6017 26.4925C33.5876 26.4907 33.5752 26.487 33.5611 26.4834C33.5488 26.4798 33.5347 26.4762 33.5223 26.4726C33.4941 26.4635 33.4658 26.4527 33.4394 26.4419C33.4323 26.4382 33.4253 26.4364 33.4182 26.4328C33.3882 26.4183 33.3582 26.4039 33.3282 26.3858H31.1012C31.0147 26.5033 30.9353 26.6244 30.8595 26.7474H36.9881C36.6298 26.7148 36.224 26.6859 35.8005 26.657ZM39.7127 26.6118C39.7127 26.5702 39.7109 26.5304 39.7091 26.4889C39.7091 26.4545 39.7074 26.4202 39.7056 26.3858H37.7416C37.6957 26.4346 37.6498 26.4798 37.6022 26.5196C37.581 26.5395 37.558 26.5576 37.5369 26.5738C37.521 26.5883 37.5051 26.5991 37.4892 26.61C37.4451 26.6407 37.4028 26.6678 37.3586 26.6895C37.3428 26.6986 37.3269 26.7058 37.311 26.7112C37.2722 26.7293 37.2334 26.7402 37.1945 26.7474H39.7144C39.7144 26.7022 39.7144 26.657 39.7127 26.6118ZM35.8005 26.657C35.7387 26.6534 35.6787 26.648 35.6169 26.6443C35.4211 26.6299 35.2217 26.6172 35.0223 26.6028C34.9217 26.5955 34.8228 26.5901 34.724 26.5829C34.7134 26.5829 34.7046 26.5793 34.694 26.5756C34.6887 26.572 34.6834 26.5702 34.6781 26.5648C34.6676 26.5594 34.6552 26.5485 34.6446 26.5359C34.634 26.525 34.6234 26.5106 34.6129 26.4961C34.604 26.4834 34.5934 26.4672 34.5846 26.4527C34.5723 26.431 34.5617 26.4093 34.5493 26.3858H33.8311C33.8205 26.4057 33.8099 26.422 33.8011 26.4364L33.7976 26.44C33.7888 26.4527 33.7799 26.4654 33.7711 26.4744C33.7499 26.4979 33.7305 26.5106 33.7111 26.5087C33.6741 26.5051 33.637 26.5015 33.6017 26.4925C33.5876 26.4907 33.5752 26.487 33.5611 26.4834C33.5488 26.4798 33.5347 26.4762 33.5223 26.4726C33.4941 26.4635 33.4658 26.4527 33.4394 26.4419C33.4323 26.4382 33.4253 26.4364 33.4182 26.4328C33.3882 26.4183 33.3582 26.4039 33.3282 26.3858H31.1012C31.0147 26.5033 30.9353 26.6244 30.8595 26.7474H36.9881C36.6298 26.7148 36.224 26.6859 35.8005 26.657ZM39.7127 26.6118C39.7127 26.5702 39.7109 26.5304 39.7091 26.4889C39.7091 26.4545 39.7074 26.4202 39.7056 26.3858H37.7416C37.6957 26.4346 37.6498 26.4798 37.6022 26.5196C37.581 26.5395 37.558 26.5576 37.5369 26.5738C37.521 26.5883 37.5051 26.5991 37.4892 26.61C37.4451 26.6407 37.4028 26.6678 37.3586 26.6895C37.3428 26.6986 37.3269 26.7058 37.311 26.7112C37.2722 26.7293 37.2334 26.7402 37.1945 26.7474H39.7144C39.7144 26.7022 39.7144 26.657 39.7127 26.6118Z" fill="#7E7E7E"/>
<path d="M47.1128 26.777C45.7047 27.3062 45.0001 21.8716 44.6486 21.7502C44.3219 21.6374 43.9182 27.1503 43.5925 27.0416C35.7106 24.4103 32.4322 18.0195 25.6346 19.8232C23.7352 13.6635 24.2806 6.97717 26.3387 5.00733C29.5472 0.636703 35.7583 0.787362 40.0362 1.54052C43.3815 2.12948 45.6342 5.47277 44.8392 8.85359C44.7857 9.08136 44.572 9.29613 44.6414 9.50501C44.938 10.3976 47.3703 22.6257 47.1128 26.777Z" fill="#030303"/>
<path d="M36.1953 17.4687C40.2781 17.4687 43.5879 14.0778 43.5879 9.89491C43.5879 5.712 40.2781 2.32108 36.1953 2.32108C32.1125 2.32108 28.8027 5.712 28.8027 9.89491C28.8027 14.0778 32.1125 17.4687 36.1953 17.4687Z" fill="#F7E5B7"/>
<path d="M42.9226 53.5343H22.2278C23.9624 49.5688 25.0288 45.7921 23.3617 42.788L42.9226 41.6262C41.9451 45.6816 41.8256 49.6615 42.9226 53.5343Z" fill="#F7E5B7"/>
<path d="M50.4133 86.5892H34.6568L34.4856 86.2276L31.9728 80.9431L31.724 86.2276L31.7063 86.5892H16.1845C16.1775 86.4681 16.1687 86.3469 16.1616 86.2276C15.2052 71.1044 18.6444 60.8536 20.6614 56.2669L20.6632 56.2651C21.4555 54.4608 22.0308 53.5333 22.0308 53.5333L22.2302 53.5315H22.232L26.2606 53.4592H26.2624L29.8305 53.3977L32.5269 53.3525L33.6086 53.3327H33.6104L34.288 53.3218L37.6567 53.2621L40.6654 53.2097L42.8253 53.1736H42.8853L43.2065 54.5928V54.5946L43.2189 54.6579V54.6597L43.2736 54.8929L43.2753 54.9001L43.3847 55.3901V55.3937L43.3918 55.4208V55.4226L43.4183 55.5401L43.42 55.5455L43.6741 56.6719L44.0853 58.5033L44.627 60.8988L45.31 63.9397L45.6558 65.471L46.1305 67.5808L50.3304 86.2276L50.4133 86.5892Z" fill="#030303"/>
<path d="M39.9355 18.2195L31.6997 17.9251L28.4443 22.3976L26.7313 22.7787C24.1635 23.3499 22.4021 25.7763 22.6067 28.4601L22.4668 48.4853L22.0002 51.5772L43.4828 44.8321L47.5135 24.338L41.7703 22.2241L39.9355 18.2195Z" fill="#6318AF"/>
<path d="M41.6005 67.0425C41.8366 66.1905 42.241 65.4638 42.7224 64.9455L44.4716 56.684L48.2843 57.6517L46.0995 65.928C46.2431 66.6282 46.2144 67.4642 45.9783 68.3161C45.4388 70.2624 44.0215 71.555 42.8126 71.2033C41.6037 70.8516 41.061 68.9887 41.6005 67.0425Z" fill="#F7E5B7"/>
<path d="M42.1265 22.431C42.1265 22.431 49.166 22.0637 49.6786 26.8463C50.1912 31.6288 51.8311 42.9982 51.8311 42.9982L48.0299 61.3835L42.6094 60.6118L45.0048 37.2094L42.1265 22.431Z" fill="#6318AF"/>
<path d="M46.7325 17.8991C46.1724 20.596 44.4905 22.3116 41.8594 22.8916C39.4977 23.4123 37.6142 20.6557 36.9864 17.8991C36.3749 15.214 39.2216 13.4532 41.8594 12.9066C44.5202 12.3553 47.0314 16.4596 46.7325 17.8991Z" fill="#D0BCFF"/>
<path d="M38.6295 16.6421C38.7946 16.6421 38.9285 16.5052 38.9285 16.3364C38.9285 16.1675 38.7946 16.0306 38.6295 16.0306C38.4644 16.0306 38.3306 16.1675 38.3306 16.3364C38.3306 16.5052 38.4644 16.6421 38.6295 16.6421Z" fill="white"/>
<path d="M45.5365 16.6421C45.7016 16.6421 45.8355 16.5052 45.8355 16.3364C45.8355 16.1675 45.7016 16.0306 45.5365 16.0306C45.3714 16.0306 45.2375 16.1675 45.2375 16.3364C45.2375 16.5052 45.3714 16.6421 45.5365 16.6421Z" fill="white"/>
<path d="M41.2013 17.1928C41.3664 17.1928 41.5003 17.0559 41.5003 16.8871C41.5003 16.7182 41.3664 16.5814 41.2013 16.5814C41.0362 16.5814 40.9023 16.7182 40.9023 16.8871C40.9023 17.0559 41.0362 17.1928 41.2013 17.1928Z" fill="white"/>
<path d="M43.4149 15.447C43.58 15.447 43.7139 15.3102 43.7139 15.1413C43.7139 14.9725 43.58 14.8356 43.4149 14.8356C43.2498 14.8356 43.116 14.9725 43.116 15.1413C43.116 15.3102 43.2498 15.447 43.4149 15.447Z" fill="white"/>
<path d="M40.8132 14.2837C41.1122 14.3754 40.6794 14.5894 40.5143 14.5894C40.3492 14.5894 40.2153 14.4526 40.2153 14.2837C40.2153 14.1149 40.3492 13.978 40.5143 13.978C40.6794 13.978 40.5143 14.192 40.8132 14.2837Z" fill="white"/>
<path d="M42.698 18.3584C42.997 18.4501 42.5642 18.6641 42.3991 18.6641C42.2339 18.6641 42.1001 18.5272 42.1001 18.3584C42.1001 18.1895 42.2339 18.0527 42.3991 18.0527C42.5642 18.0527 42.3991 18.2667 42.698 18.3584Z" fill="white"/>
<path d="M42.5764 14.2225C42.8754 14.3142 42.4426 14.5282 42.2775 14.5282C42.1124 14.5282 41.9785 14.3914 41.9785 14.2225C41.9785 14.0537 42.1124 13.9168 42.2775 13.9168C42.4426 13.9168 42.2775 14.1308 42.5764 14.2225Z" fill="white"/>
<path d="M43.1436 20.9006C43.4425 20.9923 43.0097 21.2063 42.8446 21.2063C42.6795 21.2063 42.5457 21.0694 42.5457 20.9006C42.5457 20.7317 42.6795 20.5948 42.8446 20.5948C43.0097 20.5948 42.8446 20.8088 43.1436 20.9006Z" fill="white"/>
<path d="M39.468 20.0421C39.767 20.1338 39.3342 20.3478 39.1691 20.3478C39.004 20.3478 38.8701 20.2109 38.8701 20.0421C38.8701 19.8732 39.004 19.7364 39.1691 19.7364C39.3342 19.7364 39.1691 19.9504 39.468 20.0421Z" fill="#F7E5B7"/>
<path d="M44.8194 18.2963C45.1183 18.388 44.6855 18.602 44.5204 18.602C44.3553 18.602 44.2214 18.4652 44.2214 18.2963C44.2214 18.1275 44.3553 17.9906 44.5204 17.9906C44.6855 17.9906 44.5204 18.2046 44.8194 18.2963Z" fill="white"/>
<path d="M39.1099 18.2963C39.4088 18.388 38.976 18.602 38.8109 18.602C38.6458 18.602 38.512 18.4652 38.512 18.2963C38.512 18.1275 38.6458 17.9906 38.8109 17.9906C38.976 17.9906 38.8109 18.2046 39.1099 18.2963Z" fill="#F7E5B7"/>
<path d="M41.1421 21.9723C41.4411 22.0641 41.0083 22.2781 40.8431 22.2781C40.678 22.2781 40.5442 22.1412 40.5442 21.9723C40.5442 21.8035 40.678 21.6666 40.8431 21.6666C41.0083 21.6666 40.8431 21.8806 41.1421 21.9723Z" fill="white"/>
<path d="M39.3784 22.7482C38.8285 23.4316 38.1736 23.931 37.5296 24.208L32.6927 31.0568L29.5791 28.6035L34.8209 21.9202C34.9635 21.2197 35.3171 20.4658 35.867 19.7824C37.1232 18.2213 38.9276 17.6197 39.8972 18.4387C40.8669 19.2577 40.6346 21.1871 39.3784 22.7482Z" fill="#F7E5B7"/>
<path d="M31.979 27.5708C32.7793 23.5235 30.175 17.6653 30.1178 14.6345C30.0669 11.9378 30.6969 12.1456 32.7647 10.4763L33.8235 7.76444C34.619 7.45534 35.3868 8.43219 35.7766 9.06186C35.9756 9.38335 36.4254 9.38787 36.6335 9.07249C36.7346 8.91943 36.8322 8.80797 36.9001 8.81287C37.184 8.83335 37.389 9.98154 37.6793 10.0015C38.8995 10.0853 41.6643 10.0251 42.6467 10.1147C43.7174 10.2124 43.4743 7.52004 43.5886 7.7309C44.4813 9.37707 44.0006 7.22206 42.8472 6.31887L44.5635 6.4989C45.5883 9.84832 46.5785 13.1739 45.6466 15.1769L43.938 10.2555C43.938 5.27584 41.4765 -0.564259 34.4359 0.878377C29.6443 0.387442 25.2973 3.75704 24.4413 8.61208C24.025 10.9734 23.3778 13.3537 22.9389 15.4274C22.5478 17.2752 23.097 19.7845 24.9312 19.9933L26.1777 22.9509C26.1777 24.6858 28.4606 26.1341 30.0872 25.8919C30.9229 25.7675 31.894 27.2805 32.0011 27.6515L31.979 27.5708Z" fill="#030303"/>
<path d="M51.971 48.3419C51.8227 47.7019 51.5033 47.1433 51.0639 46.7148L51.0622 46.713C50.471 46.129 49.661 45.7801 48.7787 45.7801H33.9804C31.6405 45.7801 29.7294 47.6369 29.6306 50.0106C29.6041 50.5964 29.6147 51.1786 29.6535 51.7589C29.687 52.3103 29.7506 52.8563 29.83 53.3969C29.837 53.4421 29.8423 53.4873 29.8512 53.5325V53.5343C30.2253 55.9243 30.9964 58.2113 31.7676 60.2488C33.2269 64.1051 36.9186 66.6977 40.9578 66.6977C41.2137 66.6977 41.466 66.6868 41.7166 66.6669H41.7184C43.1195 66.5585 44.4571 66.1408 45.6553 65.4701C45.8865 65.3435 46.1088 65.2079 46.3259 65.0597C46.3259 65.0597 46.3276 65.0597 46.3276 65.0579C47.9335 63.9876 49.234 62.4382 50.0281 60.5508C51.5439 56.9458 52.9627 52.6737 51.971 48.3419Z" fill="white"/>
<path d="M42.8594 59.0149C42.2993 61.7118 40.6175 63.4273 37.9864 64.0074C35.6246 64.5281 33.7412 61.7715 33.1134 59.0149C32.5018 56.3297 35.3485 54.569 37.9864 54.0224C40.6471 53.4711 43.1584 57.5753 42.8594 59.0149Z" fill="#7E7E7E"/>
<path d="M34.7565 57.7578C34.9216 57.7578 35.0554 57.6209 35.0554 57.4521C35.0554 57.2833 34.9216 57.1464 34.7565 57.1464C34.5914 57.1464 34.4575 57.2833 34.4575 57.4521C34.4575 57.6209 34.5914 57.7578 34.7565 57.7578Z" fill="#F7E5B7"/>
<path d="M41.6637 57.7578C41.8288 57.7578 41.9627 57.6209 41.9627 57.4521C41.9627 57.2833 41.8288 57.1464 41.6637 57.1464C41.4986 57.1464 41.3647 57.2833 41.3647 57.4521C41.3647 57.6209 41.4986 57.7578 41.6637 57.7578Z" fill="#F7E5B7"/>
<path d="M37.3285 58.3095C37.4936 58.3095 37.6275 58.1726 37.6275 58.0037C37.6275 57.8349 37.4936 57.698 37.3285 57.698C37.1634 57.698 37.0295 57.8349 37.0295 58.0037C37.0295 58.1726 37.1634 58.3095 37.3285 58.3095Z" fill="#F7E5B7"/>
<path d="M39.5407 56.5637C39.7058 56.5637 39.8396 56.4268 39.8396 56.258C39.8396 56.0891 39.7058 55.9522 39.5407 55.9522C39.3755 55.9522 39.2417 56.0891 39.2417 56.258C39.2417 56.4268 39.3755 56.5637 39.5407 56.5637Z" fill="#F7E5B7"/>
<path d="M36.9402 55.4004C37.2392 55.4921 36.8064 55.7061 36.6412 55.7061C36.4761 55.7061 36.3423 55.5692 36.3423 55.4004C36.3423 55.2315 36.4761 55.0947 36.6412 55.0947C36.8064 55.0947 36.6412 55.3087 36.9402 55.4004Z" fill="#F7E5B7"/>
<path d="M38.822 59.4741C39.121 59.5659 38.6882 59.7799 38.5231 59.7799C38.358 59.7799 38.2241 59.643 38.2241 59.4741C38.2241 59.3053 38.358 59.1684 38.5231 59.1684C38.6882 59.1684 38.5231 59.3824 38.822 59.4741Z" fill="#F7E5B7"/>
<path d="M38.7036 55.3392C39.0026 55.4309 38.5698 55.6449 38.4047 55.6449C38.2396 55.6449 38.1057 55.508 38.1057 55.3392C38.1057 55.1703 38.2396 55.0334 38.4047 55.0334C38.5698 55.0334 38.4047 55.2474 38.7036 55.3392Z" fill="#F7E5B7"/>
<path d="M39.2708 62.0163C39.5697 62.108 39.1369 62.322 38.9718 62.322C38.8067 62.322 38.6729 62.1852 38.6729 62.0163C38.6729 61.8475 38.8067 61.7106 38.9718 61.7106C39.1369 61.7106 38.9718 61.9246 39.2708 62.0163Z" fill="#F7E5B7"/>
<path d="M35.5952 61.1578C35.8942 61.2495 35.4614 61.4635 35.2963 61.4635C35.1312 61.4635 34.9973 61.3267 34.9973 61.1578C34.9973 60.989 35.1312 60.8521 35.2963 60.8521C35.4614 60.8521 35.2963 61.0661 35.5952 61.1578Z" fill="#F7E5B7"/>
<path d="M40.9463 59.412C41.2453 59.5038 40.8125 59.7177 40.6473 59.7177C40.4822 59.7177 40.3484 59.5809 40.3484 59.412C40.3484 59.2432 40.4822 59.1063 40.6473 59.1063C40.8125 59.1063 40.6473 59.3203 40.9463 59.412Z" fill="#F7E5B7"/>
<path d="M35.2356 59.412C35.5346 59.5038 35.1018 59.7177 34.9367 59.7177C34.7715 59.7177 34.6377 59.5809 34.6377 59.412C34.6377 59.2432 34.7715 59.1063 34.9367 59.1063C35.1018 59.1063 34.9367 59.3203 35.2356 59.412Z" fill="#F7E5B7"/>
<path d="M37.2693 63.0881C37.5683 63.1798 37.1355 63.3938 36.9703 63.3938C36.8052 63.3938 36.6714 63.2569 36.6714 63.0881C36.6714 62.9193 36.8052 62.7824 36.9703 62.7824C37.1355 62.7824 36.9703 62.9964 37.2693 63.0881Z" fill="#F7E5B7"/>
<path d="M47.0828 52.1632C46.5227 54.8601 44.8409 56.5756 42.2098 57.1557C39.848 57.6764 37.9646 54.9198 37.3368 52.1632C36.7252 49.478 39.5719 47.7172 42.2098 47.1707C44.8705 46.6193 47.3818 50.7236 47.0828 52.1632Z" fill="#7E7E7E"/>
<path d="M38.9816 50.9064C39.1467 50.9064 39.2805 50.7696 39.2805 50.6007C39.2805 50.4319 39.1467 50.295 38.9816 50.295C38.8165 50.295 38.6826 50.4319 38.6826 50.6007C38.6826 50.7696 38.8165 50.9064 38.9816 50.9064Z" fill="#F7E5B7"/>
<path d="M45.8871 50.9064C46.0522 50.9064 46.1861 50.7696 46.1861 50.6007C46.1861 50.4319 46.0522 50.295 45.8871 50.295C45.722 50.295 45.5881 50.4319 45.5881 50.6007C45.5881 50.7696 45.722 50.9064 45.8871 50.9064Z" fill="#F7E5B7"/>
<path d="M41.5519 51.4572C41.717 51.4572 41.8508 51.3203 41.8508 51.1514C41.8508 50.9826 41.717 50.8457 41.5519 50.8457C41.3868 50.8457 41.2529 50.9826 41.2529 51.1514C41.2529 51.3203 41.3868 51.4572 41.5519 51.4572Z" fill="#F7E5B7"/>
<path d="M43.7658 49.7114C43.9309 49.7114 44.0647 49.5745 44.0647 49.4057C44.0647 49.2368 43.9309 49.0999 43.7658 49.0999C43.6006 49.0999 43.4668 49.2368 43.4668 49.4057C43.4668 49.5745 43.6006 49.7114 43.7658 49.7114Z" fill="#F7E5B7"/>
<path d="M41.1653 48.549C41.4643 48.6407 41.0315 48.8547 40.8663 48.8547C40.7012 48.8547 40.5674 48.7178 40.5674 48.549C40.5674 48.3801 40.7012 48.2433 40.8663 48.2433C41.0315 48.2433 40.8663 48.4573 41.1653 48.549Z" fill="#F7E5B7"/>
<path d="M43.0471 52.6218C43.3461 52.7136 42.9133 52.9276 42.7482 52.9276C42.5831 52.9276 42.4492 52.7907 42.4492 52.6218C42.4492 52.453 42.5831 52.3161 42.7482 52.3161C42.9133 52.3161 42.7482 52.5301 43.0471 52.6218Z" fill="#F7E5B7"/>
<path d="M42.9273 48.4869C43.2262 48.5786 42.7934 48.7926 42.6283 48.7926C42.4632 48.7926 42.3293 48.6557 42.3293 48.4869C42.3293 48.3181 42.4632 48.1812 42.6283 48.1812C42.7934 48.1812 42.6283 48.3952 42.9273 48.4869Z" fill="#F7E5B7"/>
<path d="M43.4959 55.164C43.7948 55.2557 43.362 55.4697 43.1969 55.4697C43.0318 55.4697 42.8979 55.3329 42.8979 55.164C42.8979 54.9952 43.0318 54.8583 43.1969 54.8583C43.362 54.8583 43.1969 55.0723 43.4959 55.164Z" fill="#F7E5B7"/>
<path d="M39.8186 54.3065C40.1176 54.3982 39.6848 54.6122 39.5197 54.6122C39.3546 54.6122 39.2207 54.4753 39.2207 54.3065C39.2207 54.1376 39.3546 54.0007 39.5197 54.0007C39.6848 54.0007 39.5197 54.2147 39.8186 54.3065Z" fill="#F7E5B7"/>
<path d="M45.1699 52.5607C45.4689 52.6524 45.0361 52.8664 44.871 52.8664C44.7059 52.8664 44.572 52.7295 44.572 52.5607C44.572 52.3918 44.7059 52.2549 44.871 52.2549C45.0361 52.2549 44.871 52.4689 45.1699 52.5607Z" fill="#F7E5B7"/>
<path d="M39.459 52.5607C39.758 52.6524 39.3252 52.8664 39.16 52.8664C38.9949 52.8664 38.8611 52.7295 38.8611 52.5607C38.8611 52.3918 38.9949 52.2549 39.16 52.2549C39.3252 52.2549 39.16 52.4689 39.459 52.5607Z" fill="#F7E5B7"/>
<path d="M41.4927 56.2358C41.7917 56.3275 41.3588 56.5415 41.1937 56.5415C41.0286 56.5415 40.8948 56.4046 40.8948 56.2358C40.8948 56.067 41.0286 55.9301 41.1937 55.9301C41.3588 55.9301 41.1937 56.1441 41.4927 56.2358Z" fill="#F7E5B7"/>
<path d="M41.45 51.0815C40.8899 53.7784 39.208 55.4939 36.577 56.074C34.2152 56.5947 32.3318 53.8381 31.704 51.0815C31.0924 48.3963 33.9391 46.6356 36.577 46.089C39.2377 45.5377 41.749 49.6419 41.45 51.0815Z" fill="#7E7E7E"/>
<path d="M33.3473 49.8237C33.5124 49.8237 33.6463 49.6869 33.6463 49.518C33.6463 49.3492 33.5124 49.2123 33.3473 49.2123C33.1822 49.2123 33.0483 49.3492 33.0483 49.518C33.0483 49.6869 33.1822 49.8237 33.3473 49.8237Z" fill="#F7E5B7"/>
<path d="M40.2543 49.8237C40.4194 49.8237 40.5532 49.6869 40.5532 49.518C40.5532 49.3492 40.4194 49.2123 40.2543 49.2123C40.0892 49.2123 39.9553 49.3492 39.9553 49.518C39.9553 49.6869 40.0892 49.8237 40.2543 49.8237Z" fill="#F7E5B7"/>
<path d="M35.9191 50.3754C36.0842 50.3754 36.218 50.2385 36.218 50.0697C36.218 49.9008 36.0842 49.7639 35.9191 49.7639C35.754 49.7639 35.6201 49.9008 35.6201 50.0697C35.6201 50.2385 35.754 50.3754 35.9191 50.3754Z" fill="#F7E5B7"/>
<path d="M38.1312 48.6296C38.2963 48.6296 38.4302 48.4927 38.4302 48.3239C38.4302 48.1551 38.2963 48.0182 38.1312 48.0182C37.9661 48.0182 37.8323 48.1551 37.8323 48.3239C37.8323 48.4927 37.9661 48.6296 38.1312 48.6296Z" fill="#F7E5B7"/>
<path d="M35.531 47.4672C35.83 47.5589 35.3972 47.7729 35.2321 47.7729C35.067 47.7729 34.9331 47.6361 34.9331 47.4672C34.9331 47.2984 35.067 47.1615 35.2321 47.1615C35.3972 47.1615 35.2321 47.3755 35.531 47.4672Z" fill="#F7E5B7"/>
<path d="M37.4126 51.5401C37.7116 51.6318 37.2788 51.8458 37.1137 51.8458C36.9485 51.8458 36.8147 51.7089 36.8147 51.5401C36.8147 51.3712 36.9485 51.2344 37.1137 51.2344C37.2788 51.2344 37.1137 51.4484 37.4126 51.5401Z" fill="#F7E5B7"/>
<path d="M37.2942 47.406C37.5932 47.4977 37.1604 47.7117 36.9952 47.7117C36.8301 47.7117 36.6963 47.5748 36.6963 47.406C36.6963 47.2372 36.8301 47.1003 36.9952 47.1003C37.1604 47.1003 36.9952 47.3143 37.2942 47.406Z" fill="#F7E5B7"/>
<path d="M37.8616 54.0822C38.1605 54.1739 37.7277 54.3879 37.5626 54.3879C37.3975 54.3879 37.2637 54.2511 37.2637 54.0822C37.2637 53.9134 37.3975 53.7765 37.5626 53.7765C37.7277 53.7765 37.5626 53.9905 37.8616 54.0822Z" fill="#F7E5B7"/>
<path d="M34.1858 53.2247C34.4848 53.3164 34.052 53.5304 33.8868 53.5304C33.7217 53.5304 33.5879 53.3935 33.5879 53.2247C33.5879 53.0558 33.7217 52.9189 33.8868 52.9189C34.052 52.9189 33.8868 53.1329 34.1858 53.2247Z" fill="#F7E5B7"/>
<path d="M39.5371 51.4789C39.8361 51.5706 39.4033 51.7846 39.2382 51.7846C39.0731 51.7846 38.9392 51.6477 38.9392 51.4789C38.9392 51.31 39.0731 51.1732 39.2382 51.1732C39.4033 51.1732 39.2382 51.3872 39.5371 51.4789Z" fill="#F7E5B7"/>
<path d="M33.8274 51.4789C34.1264 51.5706 33.6936 51.7846 33.5284 51.7846C33.3633 51.7846 33.2295 51.6477 33.2295 51.4789C33.2295 51.31 33.3633 51.1732 33.5284 51.1732C33.6936 51.1732 33.5285 51.3872 33.8274 51.4789Z" fill="#F7E5B7"/>
<path d="M35.8599 55.1549C36.1588 55.2466 35.726 55.4606 35.5609 55.4606C35.3958 55.4606 35.262 55.3237 35.262 55.1549C35.262 54.9861 35.3958 54.8492 35.5609 54.8492C35.726 54.8492 35.5609 55.0632 35.8599 55.1549Z" fill="#F7E5B7"/>
<path d="M45.6766 44.228C45.1165 46.9249 43.4346 48.6404 40.8035 49.2205C38.4418 49.7412 36.5583 46.9846 35.9305 44.228C35.319 41.5428 38.1657 39.7821 40.8035 39.2355C43.4643 38.6842 45.9755 42.7884 45.6766 44.228Z" fill="#D0BCFF"/>
<path d="M37.5736 42.9711C37.7387 42.9711 37.8726 42.8343 37.8726 42.6654C37.8726 42.4966 37.7387 42.3597 37.5736 42.3597C37.4085 42.3597 37.2747 42.4966 37.2747 42.6654C37.2747 42.8343 37.4085 42.9711 37.5736 42.9711Z" fill="white"/>
<path d="M44.4806 42.9711C44.6457 42.9711 44.7796 42.8343 44.7796 42.6654C44.7796 42.4966 44.6457 42.3597 44.4806 42.3597C44.3155 42.3597 44.1816 42.4966 44.1816 42.6654C44.1816 42.8343 44.3155 42.9711 44.4806 42.9711Z" fill="white"/>
<path d="M40.1454 43.5209C40.3105 43.5209 40.4444 43.3841 40.4444 43.2152C40.4444 43.0464 40.3105 42.9095 40.1454 42.9095C39.9803 42.9095 39.8464 43.0464 39.8464 43.2152C39.8464 43.3841 39.9803 43.5209 40.1454 43.5209Z" fill="white"/>
<path d="M42.359 41.7761C42.5241 41.7761 42.658 41.6392 42.658 41.4704C42.658 41.3015 42.5241 41.1646 42.359 41.1646C42.1939 41.1646 42.0601 41.3015 42.0601 41.4704C42.0601 41.6392 42.1939 41.7761 42.359 41.7761Z" fill="white"/>
<path d="M39.7571 40.6119C40.0561 40.7036 39.6233 40.9176 39.4581 40.9176C39.293 40.9176 39.1592 40.7807 39.1592 40.6119C39.1592 40.443 39.293 40.3062 39.4581 40.3062C39.6233 40.3062 39.4581 40.5202 39.7571 40.6119Z" fill="white"/>
<path d="M41.6419 44.6865C41.9408 44.7783 41.508 44.9923 41.3429 44.9923C41.1778 44.9923 41.0439 44.8554 41.0439 44.6865C41.0439 44.5177 41.1778 44.3808 41.3429 44.3808C41.508 44.3808 41.3429 44.5948 41.6419 44.6865Z" fill="white"/>
<path d="M41.5205 40.5516C41.8195 40.6433 41.3867 40.8573 41.2216 40.8573C41.0565 40.8573 40.9226 40.7204 40.9226 40.5516C40.9226 40.3828 41.0565 40.2459 41.2216 40.2459C41.3867 40.2459 41.2216 40.4599 41.5205 40.5516Z" fill="white"/>
<path d="M42.0877 47.2296C42.3866 47.3213 41.9538 47.5354 41.7887 47.5354C41.6236 47.5354 41.4897 47.3985 41.4897 47.2296C41.4897 47.0608 41.6236 46.9239 41.7887 46.9239C41.9538 46.9239 41.7887 47.1379 42.0877 47.2296Z" fill="#F7E5B7"/>
<path d="M38.4119 46.3711C38.7108 46.4629 38.278 46.6769 38.1129 46.6769C37.9478 46.6769 37.814 46.54 37.814 46.3711C37.814 46.2023 37.9478 46.0654 38.1129 46.0654C38.278 46.0654 38.1129 46.2794 38.4119 46.3711Z" fill="#F7E5B7"/>
<path d="M43.7634 44.6254C44.0624 44.7171 43.6296 44.9311 43.4645 44.9311C43.2994 44.9311 43.1655 44.7942 43.1655 44.6254C43.1655 44.4565 43.2994 44.3196 43.4645 44.3196C43.6296 44.3196 43.4645 44.5336 43.7634 44.6254Z" fill="white"/>
<path d="M38.0537 44.6254C38.3527 44.7171 37.9199 44.9311 37.7548 44.9311C37.5897 44.9311 37.4558 44.7942 37.4558 44.6254C37.4558 44.4565 37.5897 44.3196 37.7548 44.3196C37.9199 44.3196 37.7548 44.5336 38.0537 44.6254Z" fill="white"/>
<path d="M40.0862 48.3005C40.3852 48.3922 39.9524 48.6062 39.7872 48.6062C39.6221 48.6062 39.4883 48.4693 39.4883 48.3005C39.4883 48.1317 39.6221 47.9948 39.7872 47.9948C39.9524 47.9948 39.7872 48.2088 40.0862 48.3005Z" fill="#F7E5B7"/>
<path d="M49.8995 59.0149C49.3394 61.7118 47.6575 63.4273 45.0264 64.0074C42.6647 64.5281 40.7812 61.7715 40.1534 59.0149C39.5419 56.3297 42.3886 54.569 45.0264 54.0224C47.6872 53.4711 50.1984 57.5753 49.8995 59.0149Z" fill="#7E7E7E"/>
<path d="M41.7973 57.7578C41.9624 57.7578 42.0962 57.6209 42.0962 57.4521C42.0962 57.2833 41.9624 57.1464 41.7973 57.1464C41.6321 57.1464 41.4983 57.2833 41.4983 57.4521C41.4983 57.6209 41.6321 57.7578 41.7973 57.7578Z" fill="#F7E5B7"/>
<path d="M48.7042 57.7578C48.8693 57.7578 49.0032 57.6209 49.0032 57.4521C49.0032 57.2833 48.8693 57.1464 48.7042 57.1464C48.5391 57.1464 48.4053 57.2833 48.4053 57.4521C48.4053 57.6209 48.5391 57.7578 48.7042 57.7578Z" fill="#F7E5B7"/>
<path d="M44.369 58.3095C44.5341 58.3095 44.668 58.1726 44.668 58.0037C44.668 57.8349 44.5341 57.698 44.369 57.698C44.2039 57.698 44.0701 57.8349 44.0701 58.0037C44.0701 58.1726 44.2039 58.3095 44.369 58.3095Z" fill="#F7E5B7"/>
<path d="M46.5812 56.5628C46.7463 56.5628 46.8801 56.4259 46.8801 56.2571C46.8801 56.0882 46.7463 55.9514 46.5812 55.9514C46.4161 55.9514 46.2822 56.0882 46.2822 56.2571C46.2822 56.4259 46.4161 56.5628 46.5812 56.5628Z" fill="#F7E5B7"/>
<path d="M43.981 55.4004C44.2799 55.4921 43.8471 55.7061 43.682 55.7061C43.5169 55.7061 43.3831 55.5692 43.3831 55.4004C43.3831 55.2315 43.5169 55.0947 43.682 55.0947C43.8471 55.0947 43.682 55.3087 43.981 55.4004Z" fill="#F7E5B7"/>
<path d="M45.8626 59.4733C46.1615 59.565 45.7287 59.779 45.5636 59.779C45.3985 59.779 45.2646 59.6421 45.2646 59.4733C45.2646 59.3044 45.3985 59.1675 45.5636 59.1675C45.7287 59.1675 45.5636 59.3815 45.8626 59.4733Z" fill="#F7E5B7"/>
<path d="M45.7439 55.3392C46.0429 55.4309 45.6101 55.6449 45.445 55.6449C45.2798 55.6449 45.146 55.508 45.146 55.3392C45.146 55.1703 45.2798 55.0334 45.445 55.0334C45.6101 55.0334 45.445 55.2474 45.7439 55.3392Z" fill="#F7E5B7"/>
<path d="M46.3113 62.0163C46.6103 62.108 46.1774 62.322 46.0123 62.322C45.8472 62.322 45.7134 62.1852 45.7134 62.0163C45.7134 61.8475 45.8472 61.7106 46.0123 61.7106C46.1774 61.7106 46.0123 61.9246 46.3113 62.0163Z" fill="#F7E5B7"/>
<path d="M42.6355 61.1569C42.9345 61.2487 42.5017 61.4627 42.3366 61.4627C42.1714 61.4627 42.0376 61.3258 42.0376 61.1569C42.0376 60.9881 42.1714 60.8512 42.3366 60.8512C42.5017 60.8512 42.3366 61.0652 42.6355 61.1569Z" fill="#F7E5B7"/>
<path d="M47.9871 59.412C48.286 59.5038 47.8532 59.7177 47.6881 59.7177C47.523 59.7177 47.3892 59.5809 47.3892 59.412C47.3892 59.2432 47.523 59.1063 47.6881 59.1063C47.8532 59.1063 47.6881 59.3203 47.9871 59.412Z" fill="#F7E5B7"/>
<path d="M42.2774 59.412C42.5763 59.5038 42.1435 59.7177 41.9784 59.7177C41.8133 59.7177 41.6794 59.5809 41.6794 59.412C41.6794 59.2432 41.8133 59.1063 41.9784 59.1063C42.1435 59.1063 41.9784 59.3203 42.2774 59.412Z" fill="#F7E5B7"/>
<path d="M44.3098 63.0881C44.6088 63.1798 44.176 63.3938 44.0109 63.3938C43.8458 63.3938 43.7119 63.2569 43.7119 63.0881C43.7119 62.9193 43.8458 62.7824 44.0109 62.7824C44.176 62.7824 44.0109 62.9964 44.3098 63.0881Z" fill="#F7E5B7"/>
<path opacity="0.7" d="M51.971 48.3419C51.8227 47.7019 51.5033 47.1433 51.0639 46.7148L51.0622 46.713C50.471 46.129 49.6611 45.7801 48.7787 45.7801C43.2732 48.7791 38.4128 48.4003 33.9804 45.7801C31.6405 45.7801 29.7294 47.6369 29.6306 50.0106C29.6041 50.5964 29.6147 51.1786 29.6535 51.7589C29.687 52.3103 29.7506 52.8563 29.83 53.3969C29.837 53.4421 29.8423 53.4873 29.8512 53.5325V53.5343C30.2253 55.9243 30.9964 58.2113 31.7676 60.2488C33.2269 64.1051 36.9186 66.6977 40.9578 66.6977C41.2137 66.6977 41.466 66.6868 41.7166 66.6669H41.7184C43.1195 66.5585 44.4571 66.1408 45.6553 65.4701C45.8865 65.3435 46.1088 65.2079 46.3259 65.0597C46.3259 65.0597 46.3276 65.0597 46.3276 65.0579C47.9335 63.9876 49.234 62.4382 50.0281 60.5508C51.5439 56.9458 52.9627 52.6737 51.971 48.3419Z" fill="#F7E5B7"/>
<path d="M26.3401 23.5998C26.3401 23.5998 21.2177 20.7145 19.5545 23.5998C18.1355 26.0615 16.9022 38.5 16.5707 42.0987C16.5125 42.7304 16.6613 43.3619 16.9938 43.8972C17.9784 45.4824 20.164 45.6764 21.4 44.2883L37.2529 26.485L32.3245 23.9604L23.8759 32.9769L26.3401 23.5998Z" fill="#6318AF"/>
</svg>


